<?xml version="1.0" encoding="utf-8" standalone="no"?>
<!DOCTYPE svg PUBLIC "-//W3C//DTD SVG 1.1//EN"
  "http://www.w3.org/Graphics/SVG/1.1/DTD/svg11.dtd">
<!-- Created with matplotlib (https://matplotlib.org/) -->
<svg height="345.6pt" version="1.1" viewBox="0 0 460.8 345.6" width="460.8pt" xmlns="http://www.w3.org/2000/svg" xmlns:xlink="http://www.w3.org/1999/xlink">
 <defs>
  <style type="text/css">
*{stroke-linecap:butt;stroke-linejoin:round;}
  </style>
 </defs>
 <g id="figure_1">
  <g id="patch_1">
   <path d="M 0 345.6 
L 460.8 345.6 
L 460.8 0 
L 0 0 
z
" style="fill:#ffffff;"/>
  </g>
  <g id="axes_1">
   <g id="patch_2">
    <path d="M 58.68 298.26 
L 447.84 298.26 
L 447.84 27.6 
L 58.68 27.6 
z
" style="fill:#ffffff;"/>
   </g>
   <g id="matplotlib.axis_1">
    <g id="xtick_1">
     <g id="text_1">
      <!-- 0 -->
      <defs>
       <path d="M 4.15625 35.296875 
Q 4.15625 48 6.765625 55.734375 
Q 9.375 63.484375 14.515625 67.671875 
Q 19.671875 71.875 27.484375 71.875 
Q 33.25 71.875 37.59375 69.546875 
Q 41.9375 67.234375 44.765625 62.859375 
Q 47.609375 58.5 49.21875 52.21875 
Q 50.828125 45.953125 50.828125 35.296875 
Q 50.828125 22.703125 48.234375 14.96875 
Q 45.65625 7.234375 40.5 3 
Q 35.359375 -1.21875 27.484375 -1.21875 
Q 17.140625 -1.21875 11.234375 6.203125 
Q 4.15625 15.140625 4.15625 35.296875 
z
M 13.1875 35.296875 
Q 13.1875 17.671875 17.3125 11.828125 
Q 21.4375 6 27.484375 6 
Q 33.546875 6 37.671875 11.859375 
Q 41.796875 17.71875 41.796875 35.296875 
Q 41.796875 52.984375 37.671875 58.78125 
Q 33.546875 64.59375 27.390625 64.59375 
Q 21.34375 64.59375 17.71875 59.46875 
Q 13.1875 52.9375 13.1875 35.296875 
z
" id="ArialMT-48"/>
      </defs>
      <g style="fill:#262626;" transform="translate(73.310575 315.633594)scale(0.11 -0.11)">
       <use xlink:href="#ArialMT-48"/>
      </g>
     </g>
    </g>
    <g id="xtick_2">
     <g id="text_2">
      <!-- 2 -->
      <defs>
       <path d="M 50.34375 8.453125 
L 50.34375 0 
L 3.03125 0 
Q 2.9375 3.171875 4.046875 6.109375 
Q 5.859375 10.9375 9.828125 15.625 
Q 13.8125 20.3125 21.34375 26.46875 
Q 33.015625 36.03125 37.109375 41.625 
Q 41.21875 47.21875 41.21875 52.203125 
Q 41.21875 57.421875 37.46875 61 
Q 33.734375 64.59375 27.734375 64.59375 
Q 21.390625 64.59375 17.578125 60.78125 
Q 13.765625 56.984375 13.71875 50.25 
L 4.6875 51.171875 
Q 5.609375 61.28125 11.65625 66.578125 
Q 17.71875 71.875 27.9375 71.875 
Q 38.234375 71.875 44.234375 66.15625 
Q 50.25 60.453125 50.25 52 
Q 50.25 47.703125 48.484375 43.546875 
Q 46.734375 39.40625 42.65625 34.8125 
Q 38.578125 30.21875 29.109375 22.21875 
Q 21.1875 15.578125 18.9375 13.203125 
Q 16.703125 10.84375 15.234375 8.453125 
z
" id="ArialMT-50"/>
      </defs>
      <g style="fill:#262626;" transform="translate(145.695602 315.633594)scale(0.11 -0.11)">
       <use xlink:href="#ArialMT-50"/>
      </g>
     </g>
    </g>
    <g id="xtick_3">
     <g id="text_3">
      <!-- 4 -->
      <defs>
       <path d="M 32.328125 0 
L 32.328125 17.140625 
L 1.265625 17.140625 
L 1.265625 25.203125 
L 33.9375 71.578125 
L 41.109375 71.578125 
L 41.109375 25.203125 
L 50.78125 25.203125 
L 50.78125 17.140625 
L 41.109375 17.140625 
L 41.109375 0 
z
M 32.328125 25.203125 
L 32.328125 57.46875 
L 9.90625 25.203125 
z
" id="ArialMT-52"/>
      </defs>
      <g style="fill:#262626;" transform="translate(218.080629 315.633594)scale(0.11 -0.11)">
       <use xlink:href="#ArialMT-52"/>
      </g>
     </g>
    </g>
    <g id="xtick_4">
     <g id="text_4">
      <!-- 6 -->
      <defs>
       <path d="M 49.75 54.046875 
L 41.015625 53.375 
Q 39.84375 58.546875 37.703125 60.890625 
Q 34.125 64.65625 28.90625 64.65625 
Q 24.703125 64.65625 21.53125 62.3125 
Q 17.390625 59.28125 14.984375 53.46875 
Q 12.59375 47.65625 12.5 36.921875 
Q 15.671875 41.75 20.265625 44.09375 
Q 24.859375 46.4375 29.890625 46.4375 
Q 38.671875 46.4375 44.84375 39.96875 
Q 51.03125 33.5 51.03125 23.25 
Q 51.03125 16.5 48.125 10.71875 
Q 45.21875 4.9375 40.140625 1.859375 
Q 35.0625 -1.21875 28.609375 -1.21875 
Q 17.625 -1.21875 10.6875 6.859375 
Q 3.765625 14.9375 3.765625 33.5 
Q 3.765625 54.25 11.421875 63.671875 
Q 18.109375 71.875 29.4375 71.875 
Q 37.890625 71.875 43.28125 67.140625 
Q 48.6875 62.40625 49.75 54.046875 
z
M 13.875 23.1875 
Q 13.875 18.65625 15.796875 14.5 
Q 17.71875 10.359375 21.1875 8.171875 
Q 24.65625 6 28.46875 6 
Q 34.03125 6 38.03125 10.484375 
Q 42.046875 14.984375 42.046875 22.703125 
Q 42.046875 30.125 38.078125 34.390625 
Q 34.125 38.671875 28.125 38.671875 
Q 22.171875 38.671875 18.015625 34.390625 
Q 13.875 30.125 13.875 23.1875 
z
" id="ArialMT-54"/>
      </defs>
      <g style="fill:#262626;" transform="translate(290.465655 315.633594)scale(0.11 -0.11)">
       <use xlink:href="#ArialMT-54"/>
      </g>
     </g>
    </g>
    <g id="xtick_5">
     <g id="text_5">
      <!-- 8 -->
      <defs>
       <path d="M 17.671875 38.8125 
Q 12.203125 40.828125 9.5625 44.53125 
Q 6.9375 48.25 6.9375 53.421875 
Q 6.9375 61.234375 12.546875 66.546875 
Q 18.171875 71.875 27.484375 71.875 
Q 36.859375 71.875 42.578125 66.421875 
Q 48.296875 60.984375 48.296875 53.171875 
Q 48.296875 48.1875 45.671875 44.5 
Q 43.0625 40.828125 37.75 38.8125 
Q 44.34375 36.671875 47.78125 31.875 
Q 51.21875 27.09375 51.21875 20.453125 
Q 51.21875 11.28125 44.71875 5.03125 
Q 38.234375 -1.21875 27.640625 -1.21875 
Q 17.046875 -1.21875 10.546875 5.046875 
Q 4.046875 11.328125 4.046875 20.703125 
Q 4.046875 27.6875 7.59375 32.390625 
Q 11.140625 37.109375 17.671875 38.8125 
z
M 15.921875 53.71875 
Q 15.921875 48.640625 19.1875 45.40625 
Q 22.46875 42.1875 27.6875 42.1875 
Q 32.765625 42.1875 36.015625 45.375 
Q 39.265625 48.578125 39.265625 53.21875 
Q 39.265625 58.0625 35.90625 61.359375 
Q 32.5625 64.65625 27.59375 64.65625 
Q 22.5625 64.65625 19.234375 61.421875 
Q 15.921875 58.203125 15.921875 53.71875 
z
M 13.09375 20.65625 
Q 13.09375 16.890625 14.875 13.375 
Q 16.65625 9.859375 20.171875 7.921875 
Q 23.6875 6 27.734375 6 
Q 34.03125 6 38.125 10.046875 
Q 42.234375 14.109375 42.234375 20.359375 
Q 42.234375 26.703125 38.015625 30.859375 
Q 33.796875 35.015625 27.4375 35.015625 
Q 21.234375 35.015625 17.15625 30.90625 
Q 13.09375 26.8125 13.09375 20.65625 
z
" id="ArialMT-56"/>
      </defs>
      <g style="fill:#262626;" transform="translate(362.850682 315.633594)scale(0.11 -0.11)">
       <use xlink:href="#ArialMT-56"/>
      </g>
     </g>
    </g>
    <g id="xtick_6">
     <g id="text_6">
      <!-- 10 -->
      <defs>
       <path d="M 37.25 0 
L 28.46875 0 
L 28.46875 56 
Q 25.296875 52.984375 20.140625 49.953125 
Q 14.984375 46.921875 10.890625 45.40625 
L 10.890625 53.90625 
Q 18.265625 57.375 23.78125 62.296875 
Q 29.296875 67.234375 31.59375 71.875 
L 37.25 71.875 
z
" id="ArialMT-49"/>
      </defs>
      <g style="fill:#262626;" transform="translate(432.177193 315.633594)scale(0.11 -0.11)">
       <use xlink:href="#ArialMT-49"/>
       <use x="55.615234" xlink:href="#ArialMT-48"/>
      </g>
     </g>
    </g>
    <g id="text_7">
     <!-- Time (h) -->
     <defs>
      <path d="M 25.921875 0 
L 25.921875 63.140625 
L 2.34375 63.140625 
L 2.34375 71.578125 
L 59.078125 71.578125 
L 59.078125 63.140625 
L 35.40625 63.140625 
L 35.40625 0 
z
" id="ArialMT-84"/>
      <path d="M 6.640625 61.46875 
L 6.640625 71.578125 
L 15.4375 71.578125 
L 15.4375 61.46875 
z
M 6.640625 0 
L 6.640625 51.859375 
L 15.4375 51.859375 
L 15.4375 0 
z
" id="ArialMT-105"/>
      <path d="M 6.59375 0 
L 6.59375 51.859375 
L 14.453125 51.859375 
L 14.453125 44.578125 
Q 16.890625 48.390625 20.9375 50.703125 
Q 25 53.03125 30.171875 53.03125 
Q 35.9375 53.03125 39.625 50.640625 
Q 43.3125 48.25 44.828125 43.953125 
Q 50.984375 53.03125 60.84375 53.03125 
Q 68.5625 53.03125 72.703125 48.75 
Q 76.859375 44.484375 76.859375 35.59375 
L 76.859375 0 
L 68.109375 0 
L 68.109375 32.671875 
Q 68.109375 37.9375 67.25 40.25 
Q 66.40625 42.578125 64.15625 43.984375 
Q 61.921875 45.40625 58.890625 45.40625 
Q 53.421875 45.40625 49.796875 41.765625 
Q 46.1875 38.140625 46.1875 30.125 
L 46.1875 0 
L 37.40625 0 
L 37.40625 33.6875 
Q 37.40625 39.546875 35.25 42.46875 
Q 33.109375 45.40625 28.21875 45.40625 
Q 24.515625 45.40625 21.359375 43.453125 
Q 18.21875 41.5 16.796875 37.734375 
Q 15.375 33.984375 15.375 26.90625 
L 15.375 0 
z
" id="ArialMT-109"/>
      <path d="M 42.09375 16.703125 
L 51.171875 15.578125 
Q 49.03125 7.625 43.21875 3.21875 
Q 37.40625 -1.171875 28.375 -1.171875 
Q 17 -1.171875 10.328125 5.828125 
Q 3.65625 12.84375 3.65625 25.484375 
Q 3.65625 38.578125 10.390625 45.796875 
Q 17.140625 53.03125 27.875 53.03125 
Q 38.28125 53.03125 44.875 45.953125 
Q 51.46875 38.875 51.46875 26.03125 
Q 51.46875 25.25 51.421875 23.6875 
L 12.75 23.6875 
Q 13.234375 15.140625 17.578125 10.59375 
Q 21.921875 6.0625 28.421875 6.0625 
Q 33.25 6.0625 36.671875 8.59375 
Q 40.09375 11.140625 42.09375 16.703125 
z
M 13.234375 30.90625 
L 42.1875 30.90625 
Q 41.609375 37.453125 38.875 40.71875 
Q 34.671875 45.796875 27.984375 45.796875 
Q 21.921875 45.796875 17.796875 41.75 
Q 13.671875 37.703125 13.234375 30.90625 
z
" id="ArialMT-101"/>
      <path id="ArialMT-32"/>
      <path d="M 23.390625 -21.046875 
Q 16.109375 -11.859375 11.078125 0.4375 
Q 6.0625 12.75 6.0625 25.921875 
Q 6.0625 37.546875 9.8125 48.1875 
Q 14.203125 60.546875 23.390625 72.796875 
L 29.6875 72.796875 
Q 23.78125 62.640625 21.875 58.296875 
Q 18.890625 51.5625 17.1875 44.234375 
Q 15.09375 35.109375 15.09375 25.875 
Q 15.09375 2.390625 29.6875 -21.046875 
z
" id="ArialMT-40"/>
      <path d="M 6.59375 0 
L 6.59375 71.578125 
L 15.375 71.578125 
L 15.375 45.90625 
Q 21.53125 53.03125 30.90625 53.03125 
Q 36.671875 53.03125 40.921875 50.75 
Q 45.171875 48.484375 47 44.484375 
Q 48.828125 40.484375 48.828125 32.859375 
L 48.828125 0 
L 40.046875 0 
L 40.046875 32.859375 
Q 40.046875 39.453125 37.1875 42.453125 
Q 34.328125 45.453125 29.109375 45.453125 
Q 25.203125 45.453125 21.75 43.421875 
Q 18.3125 41.40625 16.84375 37.9375 
Q 15.375 34.46875 15.375 28.375 
L 15.375 0 
z
" id="ArialMT-104"/>
      <path d="M 12.359375 -21.046875 
L 6.0625 -21.046875 
Q 20.65625 2.390625 20.65625 25.875 
Q 20.65625 35.0625 18.5625 44.09375 
Q 16.890625 51.421875 13.921875 58.15625 
Q 12.015625 62.546875 6.0625 72.796875 
L 12.359375 72.796875 
Q 21.53125 60.546875 25.921875 48.1875 
Q 29.6875 37.546875 29.6875 25.921875 
Q 29.6875 12.75 24.625 0.4375 
Q 19.578125 -11.859375 12.359375 -21.046875 
z
" id="ArialMT-41"/>
     </defs>
     <g style="fill:#262626;" transform="translate(231.15375 330.555469)scale(0.12 -0.12)">
      <use xlink:href="#ArialMT-84"/>
      <use x="57.333984" xlink:href="#ArialMT-105"/>
      <use x="79.550781" xlink:href="#ArialMT-109"/>
      <use x="162.851562" xlink:href="#ArialMT-101"/>
      <use x="218.466797" xlink:href="#ArialMT-32"/>
      <use x="246.25" xlink:href="#ArialMT-40"/>
      <use x="279.550781" xlink:href="#ArialMT-104"/>
      <use x="335.166016" xlink:href="#ArialMT-41"/>
     </g>
    </g>
   </g>
   <g id="matplotlib.axis_2">
    <g id="ytick_1">
     <g id="text_8">
      <!-- 0.00 -->
      <defs>
       <path d="M 9.078125 0 
L 9.078125 10.015625 
L 19.09375 10.015625 
L 19.09375 0 
z
" id="ArialMT-46"/>
      </defs>
      <g style="fill:#262626;" transform="translate(27.772969 258.210687)scale(0.11 -0.11)">
       <use xlink:href="#ArialMT-48"/>
       <use x="55.615234" xlink:href="#ArialMT-46"/>
       <use x="83.398438" xlink:href="#ArialMT-48"/>
       <use x="139.013672" xlink:href="#ArialMT-48"/>
      </g>
     </g>
    </g>
    <g id="ytick_2">
     <g id="text_9">
      <!-- 0.01 -->
      <g style="fill:#262626;" transform="translate(27.772969 198.261653)scale(0.11 -0.11)">
       <use xlink:href="#ArialMT-48"/>
       <use x="55.615234" xlink:href="#ArialMT-46"/>
       <use x="83.398438" xlink:href="#ArialMT-48"/>
       <use x="139.013672" xlink:href="#ArialMT-49"/>
      </g>
     </g>
    </g>
    <g id="ytick_3">
     <g id="text_10">
      <!-- 0.02 -->
      <g style="fill:#262626;" transform="translate(27.772969 138.312618)scale(0.11 -0.11)">
       <use xlink:href="#ArialMT-48"/>
       <use x="55.615234" xlink:href="#ArialMT-46"/>
       <use x="83.398438" xlink:href="#ArialMT-48"/>
       <use x="139.013672" xlink:href="#ArialMT-50"/>
      </g>
     </g>
    </g>
    <g id="ytick_4">
     <g id="text_11">
      <!-- 0.03 -->
      <defs>
       <path d="M 4.203125 18.890625 
L 12.984375 20.0625 
Q 14.5 12.59375 18.140625 9.296875 
Q 21.78125 6 27 6 
Q 33.203125 6 37.46875 10.296875 
Q 41.75 14.59375 41.75 20.953125 
Q 41.75 27 37.796875 30.921875 
Q 33.84375 34.859375 27.734375 34.859375 
Q 25.25 34.859375 21.53125 33.890625 
L 22.515625 41.609375 
Q 23.390625 41.5 23.921875 41.5 
Q 29.546875 41.5 34.03125 44.421875 
Q 38.53125 47.359375 38.53125 53.46875 
Q 38.53125 58.296875 35.25 61.46875 
Q 31.984375 64.65625 26.8125 64.65625 
Q 21.6875 64.65625 18.265625 61.421875 
Q 14.84375 58.203125 13.875 51.765625 
L 5.078125 53.328125 
Q 6.6875 62.15625 12.390625 67.015625 
Q 18.109375 71.875 26.609375 71.875 
Q 32.46875 71.875 37.390625 69.359375 
Q 42.328125 66.84375 44.9375 62.5 
Q 47.5625 58.15625 47.5625 53.265625 
Q 47.5625 48.640625 45.0625 44.828125 
Q 42.578125 41.015625 37.703125 38.765625 
Q 44.046875 37.3125 47.5625 32.6875 
Q 51.078125 28.078125 51.078125 21.140625 
Q 51.078125 11.765625 44.234375 5.25 
Q 37.40625 -1.265625 26.953125 -1.265625 
Q 17.53125 -1.265625 11.296875 4.34375 
Q 5.078125 9.96875 4.203125 18.890625 
z
" id="ArialMT-51"/>
      </defs>
      <g style="fill:#262626;" transform="translate(27.772969 78.363584)scale(0.11 -0.11)">
       <use xlink:href="#ArialMT-48"/>
       <use x="55.615234" xlink:href="#ArialMT-46"/>
       <use x="83.398438" xlink:href="#ArialMT-48"/>
       <use x="139.013672" xlink:href="#ArialMT-51"/>
      </g>
     </g>
    </g>
    <g id="text_12">
     <!-- Absorbance (OD) -->
     <defs>
      <path d="M -0.140625 0 
L 27.34375 71.578125 
L 37.546875 71.578125 
L 66.84375 0 
L 56.0625 0 
L 47.703125 21.6875 
L 17.78125 21.6875 
L 9.90625 0 
z
M 20.515625 29.390625 
L 44.78125 29.390625 
L 37.3125 49.21875 
Q 33.890625 58.25 32.234375 64.0625 
Q 30.859375 57.171875 28.375 50.390625 
z
" id="ArialMT-65"/>
      <path d="M 14.703125 0 
L 6.546875 0 
L 6.546875 71.578125 
L 15.328125 71.578125 
L 15.328125 46.046875 
Q 20.90625 53.03125 29.546875 53.03125 
Q 34.328125 53.03125 38.59375 51.09375 
Q 42.875 49.171875 45.625 45.671875 
Q 48.390625 42.1875 49.953125 37.25 
Q 51.515625 32.328125 51.515625 26.703125 
Q 51.515625 13.375 44.921875 6.09375 
Q 38.328125 -1.171875 29.109375 -1.171875 
Q 19.921875 -1.171875 14.703125 6.5 
z
M 14.59375 26.3125 
Q 14.59375 17 17.140625 12.84375 
Q 21.296875 6.0625 28.375 6.0625 
Q 34.125 6.0625 38.328125 11.0625 
Q 42.53125 16.0625 42.53125 25.984375 
Q 42.53125 36.140625 38.5 40.96875 
Q 34.46875 45.796875 28.765625 45.796875 
Q 23 45.796875 18.796875 40.796875 
Q 14.59375 35.796875 14.59375 26.3125 
z
" id="ArialMT-98"/>
      <path d="M 3.078125 15.484375 
L 11.765625 16.84375 
Q 12.5 11.625 15.84375 8.84375 
Q 19.1875 6.0625 25.203125 6.0625 
Q 31.25 6.0625 34.171875 8.515625 
Q 37.109375 10.984375 37.109375 14.3125 
Q 37.109375 17.28125 34.515625 19 
Q 32.71875 20.171875 25.53125 21.96875 
Q 15.875 24.421875 12.140625 26.203125 
Q 8.40625 27.984375 6.46875 31.125 
Q 4.546875 34.28125 4.546875 38.09375 
Q 4.546875 41.546875 6.125 44.5 
Q 7.71875 47.46875 10.453125 49.421875 
Q 12.5 50.921875 16.03125 51.96875 
Q 19.578125 53.03125 23.640625 53.03125 
Q 29.734375 53.03125 34.34375 51.265625 
Q 38.96875 49.515625 41.15625 46.5 
Q 43.359375 43.5 44.1875 38.484375 
L 35.59375 37.3125 
Q 35.015625 41.3125 32.203125 43.546875 
Q 29.390625 45.796875 24.265625 45.796875 
Q 18.21875 45.796875 15.625 43.796875 
Q 13.03125 41.796875 13.03125 39.109375 
Q 13.03125 37.40625 14.109375 36.03125 
Q 15.1875 34.625 17.484375 33.6875 
Q 18.796875 33.203125 25.25 31.453125 
Q 34.578125 28.953125 38.25 27.359375 
Q 41.9375 25.78125 44.03125 22.75 
Q 46.140625 19.734375 46.140625 15.234375 
Q 46.140625 10.84375 43.578125 6.953125 
Q 41.015625 3.078125 36.171875 0.953125 
Q 31.34375 -1.171875 25.25 -1.171875 
Q 15.140625 -1.171875 9.84375 3.03125 
Q 4.546875 7.234375 3.078125 15.484375 
z
" id="ArialMT-115"/>
      <path d="M 3.328125 25.921875 
Q 3.328125 40.328125 11.328125 47.265625 
Q 18.015625 53.03125 27.640625 53.03125 
Q 38.328125 53.03125 45.109375 46.015625 
Q 51.90625 39.015625 51.90625 26.65625 
Q 51.90625 16.65625 48.90625 10.90625 
Q 45.90625 5.171875 40.15625 2 
Q 34.421875 -1.171875 27.640625 -1.171875 
Q 16.75 -1.171875 10.03125 5.8125 
Q 3.328125 12.796875 3.328125 25.921875 
z
M 12.359375 25.921875 
Q 12.359375 15.96875 16.703125 11.015625 
Q 21.046875 6.0625 27.640625 6.0625 
Q 34.1875 6.0625 38.53125 11.03125 
Q 42.875 16.015625 42.875 26.21875 
Q 42.875 35.84375 38.5 40.796875 
Q 34.125 45.75 27.640625 45.75 
Q 21.046875 45.75 16.703125 40.8125 
Q 12.359375 35.890625 12.359375 25.921875 
z
" id="ArialMT-111"/>
      <path d="M 6.5 0 
L 6.5 51.859375 
L 14.40625 51.859375 
L 14.40625 44 
Q 17.4375 49.515625 20 51.265625 
Q 22.5625 53.03125 25.640625 53.03125 
Q 30.078125 53.03125 34.671875 50.203125 
L 31.640625 42.046875 
Q 28.421875 43.953125 25.203125 43.953125 
Q 22.3125 43.953125 20.015625 42.21875 
Q 17.71875 40.484375 16.75 37.40625 
Q 15.28125 32.71875 15.28125 27.15625 
L 15.28125 0 
z
" id="ArialMT-114"/>
      <path d="M 40.4375 6.390625 
Q 35.546875 2.25 31.03125 0.53125 
Q 26.515625 -1.171875 21.34375 -1.171875 
Q 12.796875 -1.171875 8.203125 3 
Q 3.609375 7.171875 3.609375 13.671875 
Q 3.609375 17.484375 5.34375 20.625 
Q 7.078125 23.78125 9.890625 25.6875 
Q 12.703125 27.59375 16.21875 28.5625 
Q 18.796875 29.25 24.03125 29.890625 
Q 34.671875 31.15625 39.703125 32.90625 
Q 39.75 34.71875 39.75 35.203125 
Q 39.75 40.578125 37.25 42.78125 
Q 33.890625 45.75 27.25 45.75 
Q 21.046875 45.75 18.09375 43.578125 
Q 15.140625 41.40625 13.71875 35.890625 
L 5.125 37.0625 
Q 6.296875 42.578125 8.984375 45.96875 
Q 11.671875 49.359375 16.75 51.1875 
Q 21.828125 53.03125 28.515625 53.03125 
Q 35.15625 53.03125 39.296875 51.46875 
Q 43.453125 49.90625 45.40625 47.53125 
Q 47.359375 45.171875 48.140625 41.546875 
Q 48.578125 39.3125 48.578125 33.453125 
L 48.578125 21.734375 
Q 48.578125 9.46875 49.140625 6.21875 
Q 49.703125 2.984375 51.375 0 
L 42.1875 0 
Q 40.828125 2.734375 40.4375 6.390625 
z
M 39.703125 26.03125 
Q 34.90625 24.078125 25.34375 22.703125 
Q 19.921875 21.921875 17.671875 20.9375 
Q 15.4375 19.96875 14.203125 18.09375 
Q 12.984375 16.21875 12.984375 13.921875 
Q 12.984375 10.40625 15.640625 8.0625 
Q 18.3125 5.71875 23.4375 5.71875 
Q 28.515625 5.71875 32.46875 7.9375 
Q 36.421875 10.15625 38.28125 14.015625 
Q 39.703125 17 39.703125 22.796875 
z
" id="ArialMT-97"/>
      <path d="M 6.59375 0 
L 6.59375 51.859375 
L 14.5 51.859375 
L 14.5 44.484375 
Q 20.21875 53.03125 31 53.03125 
Q 35.6875 53.03125 39.625 51.34375 
Q 43.5625 49.65625 45.515625 46.921875 
Q 47.46875 44.1875 48.25 40.4375 
Q 48.734375 37.984375 48.734375 31.890625 
L 48.734375 0 
L 39.9375 0 
L 39.9375 31.546875 
Q 39.9375 36.921875 38.90625 39.578125 
Q 37.890625 42.234375 35.28125 43.8125 
Q 32.671875 45.40625 29.15625 45.40625 
Q 23.53125 45.40625 19.453125 41.84375 
Q 15.375 38.28125 15.375 28.328125 
L 15.375 0 
z
" id="ArialMT-110"/>
      <path d="M 40.4375 19 
L 49.078125 17.875 
Q 47.65625 8.9375 41.8125 3.875 
Q 35.984375 -1.171875 27.484375 -1.171875 
Q 16.84375 -1.171875 10.375 5.78125 
Q 3.90625 12.75 3.90625 25.734375 
Q 3.90625 34.125 6.6875 40.421875 
Q 9.46875 46.734375 15.15625 49.875 
Q 20.84375 53.03125 27.546875 53.03125 
Q 35.984375 53.03125 41.359375 48.75 
Q 46.734375 44.484375 48.25 36.625 
L 39.703125 35.296875 
Q 38.484375 40.53125 35.375 43.15625 
Q 32.28125 45.796875 27.875 45.796875 
Q 21.234375 45.796875 17.078125 41.03125 
Q 12.9375 36.28125 12.9375 25.984375 
Q 12.9375 15.53125 16.9375 10.796875 
Q 20.953125 6.0625 27.390625 6.0625 
Q 32.5625 6.0625 36.03125 9.234375 
Q 39.5 12.40625 40.4375 19 
z
" id="ArialMT-99"/>
      <path d="M 4.828125 34.859375 
Q 4.828125 52.6875 14.390625 62.765625 
Q 23.96875 72.859375 39.109375 72.859375 
Q 49.03125 72.859375 56.984375 68.109375 
Q 64.9375 63.375 69.109375 54.90625 
Q 73.296875 46.4375 73.296875 35.6875 
Q 73.296875 24.8125 68.890625 16.21875 
Q 64.5 7.625 56.4375 3.203125 
Q 48.390625 -1.21875 39.0625 -1.21875 
Q 28.953125 -1.21875 20.984375 3.65625 
Q 13.03125 8.546875 8.921875 16.984375 
Q 4.828125 25.4375 4.828125 34.859375 
z
M 14.59375 34.71875 
Q 14.59375 21.78125 21.546875 14.328125 
Q 28.515625 6.890625 39.015625 6.890625 
Q 49.703125 6.890625 56.609375 14.40625 
Q 63.53125 21.921875 63.53125 35.75 
Q 63.53125 44.484375 60.578125 51 
Q 57.625 57.515625 51.921875 61.109375 
Q 46.234375 64.703125 39.15625 64.703125 
Q 29.109375 64.703125 21.84375 57.78125 
Q 14.59375 50.875 14.59375 34.71875 
z
" id="ArialMT-79"/>
      <path d="M 7.71875 0 
L 7.71875 71.578125 
L 32.375 71.578125 
Q 40.71875 71.578125 45.125 70.5625 
Q 51.265625 69.140625 55.609375 65.4375 
Q 61.28125 60.640625 64.078125 53.1875 
Q 66.890625 45.75 66.890625 36.1875 
Q 66.890625 28.03125 64.984375 21.734375 
Q 63.09375 15.4375 60.109375 11.296875 
Q 57.125 7.171875 53.578125 4.796875 
Q 50.046875 2.4375 45.046875 1.21875 
Q 40.046875 0 33.546875 0 
z
M 17.1875 8.453125 
L 32.46875 8.453125 
Q 39.546875 8.453125 43.578125 9.765625 
Q 47.609375 11.078125 50 13.484375 
Q 53.375 16.84375 55.25 22.53125 
Q 57.125 28.21875 57.125 36.328125 
Q 57.125 47.5625 53.4375 53.59375 
Q 49.75 59.625 44.484375 61.671875 
Q 40.671875 63.140625 32.234375 63.140625 
L 17.1875 63.140625 
z
" id="ArialMT-68"/>
     </defs>
     <g style="fill:#262626;" transform="translate(21.247344 209.611875)rotate(-90)scale(0.12 -0.12)">
      <use xlink:href="#ArialMT-65"/>
      <use x="66.699219" xlink:href="#ArialMT-98"/>
      <use x="122.314453" xlink:href="#ArialMT-115"/>
      <use x="172.314453" xlink:href="#ArialMT-111"/>
      <use x="227.929688" xlink:href="#ArialMT-114"/>
      <use x="261.230469" xlink:href="#ArialMT-98"/>
      <use x="316.845703" xlink:href="#ArialMT-97"/>
      <use x="372.460938" xlink:href="#ArialMT-110"/>
      <use x="428.076172" xlink:href="#ArialMT-99"/>
      <use x="478.076172" xlink:href="#ArialMT-101"/>
      <use x="533.691406" xlink:href="#ArialMT-32"/>
      <use x="561.474609" xlink:href="#ArialMT-40"/>
      <use x="594.775391" xlink:href="#ArialMT-79"/>
      <use x="672.558594" xlink:href="#ArialMT-68"/>
      <use x="744.775391" xlink:href="#ArialMT-41"/>
     </g>
    </g>
   </g>
   <g id="PathCollection_1">
    <defs>
     <path d="M 0 1.118034 
C 0.296506 1.118034 0.580908 1.000231 0.790569 0.790569 
C 1.000231 0.580908 1.118034 0.296506 1.118034 0 
C 1.118034 -0.296506 1.000231 -0.580908 0.790569 -0.790569 
C 0.580908 -1.000231 0.296506 -1.118034 0 -1.118034 
C -0.296506 -1.118034 -0.580908 -1.000231 -0.790569 -0.790569 
C -1.000231 -0.580908 -1.118034 -0.296506 -1.118034 0 
C -1.118034 0.296506 -1.000231 0.580908 -0.790569 0.790569 
C -0.580908 1.000231 -0.296506 1.118034 0 1.118034 
z
" id="m8587f965f6" style="stroke:#d65f5f;"/>
    </defs>
    <g clip-path="url(#p0d6ce9202c)">
     <use style="fill:#2e4f4f;stroke:#d65f5f;" x="101.301711" xlink:href="#m8587f965f6" y="219.254139"/>
     <use style="fill:#2e4f4f;stroke:#d65f5f;" x="121.107059" xlink:href="#m8587f965f6" y="283.113587"/>
     <use style="fill:#2e4f4f;stroke:#d65f5f;" x="145.83861" xlink:href="#m8587f965f6" y="263.54243"/>
     <use style="fill:#2e4f4f;stroke:#d65f5f;" x="166.046096" xlink:href="#m8587f965f6" y="271.750176"/>
     <use style="fill:#2e4f4f;stroke:#d65f5f;" x="185.34877" xlink:href="#m8587f965f6" y="270.713865"/>
     <use style="fill:#2e4f4f;stroke:#d65f5f;" x="210.48246" xlink:href="#m8587f965f6" y="285.039504"/>
     <use style="fill:#2e4f4f;stroke:#d65f5f;" x="229.986203" xlink:href="#m8587f965f6" y="257.781476"/>
     <use style="fill:#2e4f4f;stroke:#d65f5f;" x="255.320963" xlink:href="#m8587f965f6" y="240.563176"/>
     <use style="fill:#2e4f4f;stroke:#d65f5f;" x="274.221497" xlink:href="#m8587f965f6" y="254.790504"/>
     <use style="fill:#2e4f4f;stroke:#d65f5f;" x="294.227914" xlink:href="#m8587f965f6" y="217.035174"/>
     <use style="fill:#2e4f4f;stroke:#d65f5f;" x="320.366952" xlink:href="#m8587f965f6" y="236.525574"/>
     <use style="fill:#2e4f4f;stroke:#d65f5f;" x="341.579786" xlink:href="#m8587f965f6" y="247.402"/>
     <use style="fill:#2e4f4f;stroke:#d65f5f;" x="368.020428" xlink:href="#m8587f965f6" y="248.966169"/>
     <use style="fill:#2e4f4f;stroke:#d65f5f;" x="388.630053" xlink:href="#m8587f965f6" y="207.217499"/>
     <use style="fill:#2e4f4f;stroke:#d65f5f;" x="409.541283" xlink:href="#m8587f965f6" y="187.361003"/>
     <use style="fill:#2e4f4f;stroke:#d65f5f;" x="430.150909" xlink:href="#m8587f965f6" y="159.069754"/>
    </g>
   </g>
   <g id="PathCollection_2">
    <g clip-path="url(#p0d6ce9202c)">
     <use style="fill:#2e4f4f;stroke:#d65f5f;" x="76.369091" xlink:href="#m8587f965f6" y="259.332071"/>
     <use style="fill:#2e4f4f;stroke:#d65f5f;" x="101.301711" xlink:href="#m8587f965f6" y="257.794423"/>
     <use style="fill:#2e4f4f;stroke:#d65f5f;" x="121.107059" xlink:href="#m8587f965f6" y="239.027408"/>
     <use style="fill:#2e4f4f;stroke:#d65f5f;" x="145.83861" xlink:href="#m8587f965f6" y="246.095799"/>
     <use style="fill:#2e4f4f;stroke:#d65f5f;" x="166.046096" xlink:href="#m8587f965f6" y="254.454061"/>
     <use style="fill:#2e4f4f;stroke:#d65f5f;" x="185.34877" xlink:href="#m8587f965f6" y="247.840875"/>
     <use style="fill:#2e4f4f;stroke:#d65f5f;" x="210.48246" xlink:href="#m8587f965f6" y="265.236344"/>
     <use style="fill:#2e4f4f;stroke:#d65f5f;" x="229.986203" xlink:href="#m8587f965f6" y="232.526663"/>
     <use style="fill:#2e4f4f;stroke:#d65f5f;" x="255.320963" xlink:href="#m8587f965f6" y="226.678887"/>
     <use style="fill:#2e4f4f;stroke:#d65f5f;" x="274.221497" xlink:href="#m8587f965f6" y="229.991587"/>
     <use style="fill:#2e4f4f;stroke:#d65f5f;" x="294.227914" xlink:href="#m8587f965f6" y="178.771458"/>
     <use style="fill:#2e4f4f;stroke:#d65f5f;" x="320.366952" xlink:href="#m8587f965f6" y="223.003023"/>
     <use style="fill:#2e4f4f;stroke:#d65f5f;" x="341.579786" xlink:href="#m8587f965f6" y="228.62995"/>
     <use style="fill:#2e4f4f;stroke:#d65f5f;" x="368.020428" xlink:href="#m8587f965f6" y="209.158442"/>
     <use style="fill:#2e4f4f;stroke:#d65f5f;" x="388.630053" xlink:href="#m8587f965f6" y="172.994683"/>
     <use style="fill:#2e4f4f;stroke:#d65f5f;" x="409.541283" xlink:href="#m8587f965f6" y="148.192485"/>
     <use style="fill:#2e4f4f;stroke:#d65f5f;" x="430.150909" xlink:href="#m8587f965f6" y="102.076824"/>
    </g>
   </g>
   <g id="PathCollection_3">
    <g clip-path="url(#p0d6ce9202c)">
     <use style="fill:#2e4f4f;stroke:#d65f5f;" x="76.369091" xlink:href="#m8587f965f6" y="259.332071"/>
     <use style="fill:#2e4f4f;stroke:#d65f5f;" x="101.301711" xlink:href="#m8587f965f6" y="260.759001"/>
     <use style="fill:#2e4f4f;stroke:#d65f5f;" x="121.107059" xlink:href="#m8587f965f6" y="241.966538"/>
     <use style="fill:#2e4f4f;stroke:#d65f5f;" x="145.83861" xlink:href="#m8587f965f6" y="243.187972"/>
     <use style="fill:#2e4f4f;stroke:#d65f5f;" x="166.046096" xlink:href="#m8587f965f6" y="257.336693"/>
     <use style="fill:#2e4f4f;stroke:#d65f5f;" x="185.34877" xlink:href="#m8587f965f6" y="242.122627"/>
     <use style="fill:#2e4f4f;stroke:#d65f5f;" x="210.48246" xlink:href="#m8587f965f6" y="256.749246"/>
     <use style="fill:#2e4f4f;stroke:#d65f5f;" x="229.986203" xlink:href="#m8587f965f6" y="224.108461"/>
     <use style="fill:#2e4f4f;stroke:#d65f5f;" x="255.320963" xlink:href="#m8587f965f6" y="221.125192"/>
     <use style="fill:#2e4f4f;stroke:#d65f5f;" x="274.221497" xlink:href="#m8587f965f6" y="227.236209"/>
     <use style="fill:#2e4f4f;stroke:#d65f5f;" x="294.227914" xlink:href="#m8587f965f6" y="186.970855"/>
     <use style="fill:#2e4f4f;stroke:#d65f5f;" x="320.366952" xlink:href="#m8587f965f6" y="220.298574"/>
     <use style="fill:#2e4f4f;stroke:#d65f5f;" x="341.579786" xlink:href="#m8587f965f6" y="223.266521"/>
     <use style="fill:#2e4f4f;stroke:#d65f5f;" x="368.020428" xlink:href="#m8587f965f6" y="195.889166"/>
     <use style="fill:#2e4f4f;stroke:#d65f5f;" x="388.630053" xlink:href="#m8587f965f6" y="167.729642"/>
     <use style="fill:#2e4f4f;stroke:#d65f5f;" x="409.541283" xlink:href="#m8587f965f6" y="129.913818"/>
     <use style="fill:#2e4f4f;stroke:#d65f5f;" x="430.150909" xlink:href="#m8587f965f6" y="68.399192"/>
    </g>
   </g>
   <g id="PathCollection_4">
    <g clip-path="url(#p0d6ce9202c)">
     <use style="fill:#2e4f4f;stroke:#d65f5f;" x="76.369091" xlink:href="#m8587f965f6" y="238.349889"/>
     <use style="fill:#2e4f4f;stroke:#d65f5f;" x="121.107059" xlink:href="#m8587f965f6" y="239.027408"/>
     <use style="fill:#2e4f4f;stroke:#d65f5f;" x="145.83861" xlink:href="#m8587f965f6" y="243.187972"/>
     <use style="fill:#2e4f4f;stroke:#d65f5f;" x="166.046096" xlink:href="#m8587f965f6" y="240.040579"/>
     <use style="fill:#2e4f4f;stroke:#d65f5f;" x="185.34877" xlink:href="#m8587f965f6" y="102.025296"/>
     <use style="fill:#2e4f4f;stroke:#d65f5f;" x="210.48246" xlink:href="#m8587f965f6" y="251.091215"/>
     <use style="fill:#2e4f4f;stroke:#d65f5f;" x="229.986203" xlink:href="#m8587f965f6" y="221.302324"/>
     <use style="fill:#2e4f4f;stroke:#d65f5f;" x="255.320963" xlink:href="#m8587f965f6" y="218.348396"/>
     <use style="fill:#2e4f4f;stroke:#d65f5f;" x="274.221497" xlink:href="#m8587f965f6" y="229.991587"/>
     <use style="fill:#2e4f4f;stroke:#d65f5f;" x="294.227914" xlink:href="#m8587f965f6" y="195.17015"/>
     <use style="fill:#2e4f4f;stroke:#d65f5f;" x="320.366952" xlink:href="#m8587f965f6" y="217.594023"/>
     <use style="fill:#2e4f4f;stroke:#d65f5f;" x="341.579786" xlink:href="#m8587f965f6" y="199.131042"/>
     <use style="fill:#2e4f4f;stroke:#d65f5f;" x="368.020428" xlink:href="#m8587f965f6" y="182.61999"/>
     <use style="fill:#2e4f4f;stroke:#d65f5f;" x="388.630053" xlink:href="#m8587f965f6" y="159.832031"/>
     <use style="fill:#2e4f4f;stroke:#d65f5f;" x="409.541283" xlink:href="#m8587f965f6" y="103.801408"/>
     <use style="fill:#2e4f4f;stroke:#d65f5f;" x="430.150909" xlink:href="#m8587f965f6" y="39.902727"/>
    </g>
   </g>
   <g id="PathCollection_5">
    <g clip-path="url(#p0d6ce9202c)">
     <use style="fill:#2e4f4f;stroke:#d65f5f;" x="76.369091" xlink:href="#m8587f965f6" y="265.326964"/>
     <use style="fill:#2e4f4f;stroke:#d65f5f;" x="101.301711" xlink:href="#m8587f965f6" y="269.652955"/>
     <use style="fill:#2e4f4f;stroke:#d65f5f;" x="121.107059" xlink:href="#m8587f965f6" y="259.600987"/>
     <use style="fill:#2e4f4f;stroke:#d65f5f;" x="145.83861" xlink:href="#m8587f965f6" y="260.634604"/>
     <use style="fill:#2e4f4f;stroke:#d65f5f;" x="166.046096" xlink:href="#m8587f965f6" y="263.102172"/>
     <use style="fill:#2e4f4f;stroke:#d65f5f;" x="185.34877" xlink:href="#m8587f965f6" y="267.854795"/>
     <use style="fill:#2e4f4f;stroke:#d65f5f;" x="210.48246" xlink:href="#m8587f965f6" y="262.407276"/>
     <use style="fill:#2e4f4f;stroke:#d65f5f;" x="229.986203" xlink:href="#m8587f965f6" y="240.944969"/>
     <use style="fill:#2e4f4f;stroke:#d65f5f;" x="255.320963" xlink:href="#m8587f965f6" y="223.902091"/>
     <use style="fill:#2e4f4f;stroke:#d65f5f;" x="274.221497" xlink:href="#m8587f965f6" y="243.768786"/>
     <use style="fill:#2e4f4f;stroke:#d65f5f;" x="294.227914" xlink:href="#m8587f965f6" y="222.501405"/>
     <use style="fill:#2e4f4f;stroke:#d65f5f;" x="320.366952" xlink:href="#m8587f965f6" y="252.752574"/>
     <use style="fill:#2e4f4f;stroke:#d65f5f;" x="341.579786" xlink:href="#m8587f965f6" y="244.720236"/>
     <use style="fill:#2e4f4f;stroke:#d65f5f;" x="368.020428" xlink:href="#m8587f965f6" y="227.735407"/>
     <use style="fill:#2e4f4f;stroke:#d65f5f;" x="388.630053" xlink:href="#m8587f965f6" y="204.585028"/>
     <use style="fill:#2e4f4f;stroke:#d65f5f;" x="409.541283" xlink:href="#m8587f965f6" y="174.304798"/>
     <use style="fill:#2e4f4f;stroke:#d65f5f;" x="430.150909" xlink:href="#m8587f965f6" y="153.888587"/>
    </g>
   </g>
   <g id="PathCollection_6">
    <g clip-path="url(#p0d6ce9202c)">
     <use style="fill:#2e4f4f;stroke:#d65f5f;" x="76.369091" xlink:href="#m8587f965f6" y="226.360102"/>
     <use style="fill:#2e4f4f;stroke:#d65f5f;" x="101.301711" xlink:href="#m8587f965f6" y="242.971203"/>
     <use style="fill:#2e4f4f;stroke:#d65f5f;" x="121.107059" xlink:href="#m8587f965f6" y="247.844688"/>
     <use style="fill:#2e4f4f;stroke:#d65f5f;" x="145.83861" xlink:href="#m8587f965f6" y="237.372429"/>
     <use style="fill:#2e4f4f;stroke:#d65f5f;" x="166.046096" xlink:href="#m8587f965f6" y="254.454061"/>
     <use style="fill:#2e4f4f;stroke:#d65f5f;" x="185.34877" xlink:href="#m8587f965f6" y="253.559122"/>
     <use style="fill:#2e4f4f;stroke:#d65f5f;" x="210.48246" xlink:href="#m8587f965f6" y="239.775154"/>
     <use style="fill:#2e4f4f;stroke:#d65f5f;" x="229.986203" xlink:href="#m8587f965f6" y="207.271849"/>
     <use style="fill:#2e4f4f;stroke:#d65f5f;" x="255.320963" xlink:href="#m8587f965f6" y="210.017802"/>
     <use style="fill:#2e4f4f;stroke:#d65f5f;" x="274.221497" xlink:href="#m8587f965f6" y="213.45901"/>
     <use style="fill:#2e4f4f;stroke:#d65f5f;" x="294.227914" xlink:href="#m8587f965f6" y="192.437085"/>
     <use style="fill:#2e4f4f;stroke:#d65f5f;" x="320.366952" xlink:href="#m8587f965f6" y="228.412023"/>
     <use style="fill:#2e4f4f;stroke:#d65f5f;" x="341.579786" xlink:href="#m8587f965f6" y="220.584757"/>
     <use style="fill:#2e4f4f;stroke:#d65f5f;" x="368.020428" xlink:href="#m8587f965f6" y="203.850751"/>
     <use style="fill:#2e4f4f;stroke:#d65f5f;" x="388.630053" xlink:href="#m8587f965f6" y="165.097073"/>
     <use style="fill:#2e4f4f;stroke:#d65f5f;" x="409.541283" xlink:href="#m8587f965f6" y="156.026131"/>
     <use style="fill:#2e4f4f;stroke:#d65f5f;" x="430.150909" xlink:href="#m8587f965f6" y="89.123859"/>
    </g>
   </g>
   <g id="PathCollection_7">
    <g clip-path="url(#p0d6ce9202c)">
     <use style="fill:#2e4f4f;stroke:#d65f5f;" x="76.369091" xlink:href="#m8587f965f6" y="235.352498"/>
     <use style="fill:#2e4f4f;stroke:#d65f5f;" x="101.301711" xlink:href="#m8587f965f6" y="251.865157"/>
     <use style="fill:#2e4f4f;stroke:#d65f5f;" x="121.107059" xlink:href="#m8587f965f6" y="239.027408"/>
     <use style="fill:#2e4f4f;stroke:#d65f5f;" x="145.83861" xlink:href="#m8587f965f6" y="251.911342"/>
     <use style="fill:#2e4f4f;stroke:#d65f5f;" x="166.046096" xlink:href="#m8587f965f6" y="237.157947"/>
     <use style="fill:#2e4f4f;stroke:#d65f5f;" x="185.34877" xlink:href="#m8587f965f6" y="216.39046"/>
     <use style="fill:#2e4f4f;stroke:#d65f5f;" x="210.48246" xlink:href="#m8587f965f6" y="239.775154"/>
     <use style="fill:#2e4f4f;stroke:#d65f5f;" x="229.986203" xlink:href="#m8587f965f6" y="215.690155"/>
     <use style="fill:#2e4f4f;stroke:#d65f5f;" x="255.320963" xlink:href="#m8587f965f6" y="204.464107"/>
     <use style="fill:#2e4f4f;stroke:#d65f5f;" x="274.221497" xlink:href="#m8587f965f6" y="210.703529"/>
     <use style="fill:#2e4f4f;stroke:#d65f5f;" x="294.227914" xlink:href="#m8587f965f6" y="173.305227"/>
     <use style="fill:#2e4f4f;stroke:#d65f5f;" x="320.366952" xlink:href="#m8587f965f6" y="204.071574"/>
     <use style="fill:#2e4f4f;stroke:#d65f5f;" x="341.579786" xlink:href="#m8587f965f6" y="201.812706"/>
     <use style="fill:#2e4f4f;stroke:#d65f5f;" x="368.020428" xlink:href="#m8587f965f6" y="179.966095"/>
     <use style="fill:#2e4f4f;stroke:#d65f5f;" x="388.630053" xlink:href="#m8587f965f6" y="133.506826"/>
     <use style="fill:#2e4f4f;stroke:#d65f5f;" x="409.541283" xlink:href="#m8587f965f6" y="145.581205"/>
     <use style="fill:#2e4f4f;stroke:#d65f5f;" x="430.150909" xlink:href="#m8587f965f6" y="81.352157"/>
    </g>
   </g>
   <g id="PathCollection_8">
    <g clip-path="url(#p0d6ce9202c)">
     <use style="fill:#2e4f4f;stroke:#d65f5f;" x="76.369091" xlink:href="#m8587f965f6" y="232.354995"/>
     <use style="fill:#2e4f4f;stroke:#d65f5f;" x="121.107059" xlink:href="#m8587f965f6" y="250.783708"/>
     <use style="fill:#2e4f4f;stroke:#d65f5f;" x="145.83861" xlink:href="#m8587f965f6" y="243.187972"/>
     <use style="fill:#2e4f4f;stroke:#d65f5f;" x="166.046096" xlink:href="#m8587f965f6" y="240.040579"/>
     <use style="fill:#2e4f4f;stroke:#d65f5f;" x="185.34877" xlink:href="#m8587f965f6" y="187.799116"/>
     <use style="fill:#2e4f4f;stroke:#d65f5f;" x="210.48246" xlink:href="#m8587f965f6" y="242.604222"/>
     <use style="fill:#2e4f4f;stroke:#d65f5f;" x="229.986203" xlink:href="#m8587f965f6" y="224.108461"/>
     <use style="fill:#2e4f4f;stroke:#d65f5f;" x="255.320963" xlink:href="#m8587f965f6" y="218.348396"/>
     <use style="fill:#2e4f4f;stroke:#d65f5f;" x="274.221497" xlink:href="#m8587f965f6" y="227.236209"/>
     <use style="fill:#2e4f4f;stroke:#d65f5f;" x="294.227914" xlink:href="#m8587f965f6" y="189.703919"/>
     <use style="fill:#2e4f4f;stroke:#d65f5f;" x="320.366952" xlink:href="#m8587f965f6" y="225.707574"/>
     <use style="fill:#2e4f4f;stroke:#d65f5f;" x="341.579786" xlink:href="#m8587f965f6" y="193.767613"/>
     <use style="fill:#2e4f4f;stroke:#d65f5f;" x="368.020428" xlink:href="#m8587f965f6" y="203.850751"/>
     <use style="fill:#2e4f4f;stroke:#d65f5f;" x="388.630053" xlink:href="#m8587f965f6" y="165.097073"/>
     <use style="fill:#2e4f4f;stroke:#d65f5f;" x="409.541283" xlink:href="#m8587f965f6" y="135.13628"/>
     <use style="fill:#2e4f4f;stroke:#d65f5f;" x="430.150909" xlink:href="#m8587f965f6" y="70.989824"/>
    </g>
   </g>
   <g id="PathCollection_9">
    <g clip-path="url(#p0d6ce9202c)">
     <use style="fill:#2e4f4f;stroke:#d65f5f;" x="76.369091" xlink:href="#m8587f965f6" y="241.347391"/>
     <use style="fill:#2e4f4f;stroke:#d65f5f;" x="101.301711" xlink:href="#m8587f965f6" y="260.759001"/>
     <use style="fill:#2e4f4f;stroke:#d65f5f;" x="121.107059" xlink:href="#m8587f965f6" y="247.844688"/>
     <use style="fill:#2e4f4f;stroke:#d65f5f;" x="145.83861" xlink:href="#m8587f965f6" y="254.81906"/>
     <use style="fill:#2e4f4f;stroke:#d65f5f;" x="166.046096" xlink:href="#m8587f965f6" y="254.454061"/>
     <use style="fill:#2e4f4f;stroke:#d65f5f;" x="185.34877" xlink:href="#m8587f965f6" y="264.995618"/>
     <use style="fill:#2e4f4f;stroke:#d65f5f;" x="210.48246" xlink:href="#m8587f965f6" y="253.920283"/>
     <use style="fill:#2e4f4f;stroke:#d65f5f;" x="229.986203" xlink:href="#m8587f965f6" y="240.944969"/>
     <use style="fill:#2e4f4f;stroke:#d65f5f;" x="255.320963" xlink:href="#m8587f965f6" y="193.356716"/>
     <use style="fill:#2e4f4f;stroke:#d65f5f;" x="274.221497" xlink:href="#m8587f965f6" y="232.747068"/>
     <use style="fill:#2e4f4f;stroke:#d65f5f;" x="294.227914" xlink:href="#m8587f965f6" y="195.17015"/>
     <use style="fill:#2e4f4f;stroke:#d65f5f;" x="320.366952" xlink:href="#m8587f965f6" y="241.934574"/>
     <use style="fill:#2e4f4f;stroke:#d65f5f;" x="341.579786" xlink:href="#m8587f965f6" y="239.356807"/>
     <use style="fill:#2e4f4f;stroke:#d65f5f;" x="368.020428" xlink:href="#m8587f965f6" y="227.735407"/>
     <use style="fill:#2e4f4f;stroke:#d65f5f;" x="388.630053" xlink:href="#m8587f965f6" y="199.319889"/>
     <use style="fill:#2e4f4f;stroke:#d65f5f;" x="409.541283" xlink:href="#m8587f965f6" y="169.082336"/>
     <use style="fill:#2e4f4f;stroke:#d65f5f;" x="430.150909" xlink:href="#m8587f965f6" y="112.439157"/>
    </g>
   </g>
   <g id="PathCollection_10">
    <g clip-path="url(#p0d6ce9202c)">
     <use style="fill:#2e4f4f;stroke:#d65f5f;" x="76.369091" xlink:href="#m8587f965f6" y="253.337178"/>
     <use style="fill:#2e4f4f;stroke:#d65f5f;" x="101.301711" xlink:href="#m8587f965f6" y="248.900469"/>
     <use style="fill:#2e4f4f;stroke:#d65f5f;" x="121.107059" xlink:href="#m8587f965f6" y="247.844688"/>
     <use style="fill:#2e4f4f;stroke:#d65f5f;" x="145.83861" xlink:href="#m8587f965f6" y="237.372429"/>
     <use style="fill:#2e4f4f;stroke:#d65f5f;" x="166.046096" xlink:href="#m8587f965f6" y="257.336693"/>
     <use style="fill:#2e4f4f;stroke:#d65f5f;" x="185.34877" xlink:href="#m8587f965f6" y="222.108708"/>
     <use style="fill:#2e4f4f;stroke:#d65f5f;" x="210.48246" xlink:href="#m8587f965f6" y="262.407276"/>
     <use style="fill:#2e4f4f;stroke:#d65f5f;" x="229.986203" xlink:href="#m8587f965f6" y="218.496292"/>
     <use style="fill:#2e4f4f;stroke:#d65f5f;" x="255.320963" xlink:href="#m8587f965f6" y="221.125192"/>
     <use style="fill:#2e4f4f;stroke:#d65f5f;" x="274.221497" xlink:href="#m8587f965f6" y="213.45901"/>
     <use style="fill:#2e4f4f;stroke:#d65f5f;" x="294.227914" xlink:href="#m8587f965f6" y="189.703919"/>
     <use style="fill:#2e4f4f;stroke:#d65f5f;" x="320.366952" xlink:href="#m8587f965f6" y="209.480574"/>
     <use style="fill:#2e4f4f;stroke:#d65f5f;" x="341.579786" xlink:href="#m8587f965f6" y="201.812706"/>
     <use style="fill:#2e4f4f;stroke:#d65f5f;" x="368.020428" xlink:href="#m8587f965f6" y="187.92768"/>
     <use style="fill:#2e4f4f;stroke:#d65f5f;" x="388.630053" xlink:href="#m8587f965f6" y="162.464601"/>
     <use style="fill:#2e4f4f;stroke:#d65f5f;" x="409.541283" xlink:href="#m8587f965f6" y="114.246333"/>
     <use style="fill:#2e4f4f;stroke:#d65f5f;" x="430.150909" xlink:href="#m8587f965f6" y="58.036859"/>
    </g>
   </g>
   <g id="PathCollection_11">
    <g clip-path="url(#p0d6ce9202c)">
     <use style="fill:#2e4f4f;stroke:#d65f5f;" x="76.369091" xlink:href="#m8587f965f6" y="226.360102"/>
     <use style="fill:#2e4f4f;stroke:#d65f5f;" x="121.107059" xlink:href="#m8587f965f6" y="230.210129"/>
     <use style="fill:#2e4f4f;stroke:#d65f5f;" x="145.83861" xlink:href="#m8587f965f6" y="234.464603"/>
     <use style="fill:#2e4f4f;stroke:#d65f5f;" x="166.046096" xlink:href="#m8587f965f6" y="234.275207"/>
     <use style="fill:#2e4f4f;stroke:#d65f5f;" x="185.34877" xlink:href="#m8587f965f6" y="242.122627"/>
     <use style="fill:#2e4f4f;stroke:#d65f5f;" x="210.48246" xlink:href="#m8587f965f6" y="236.946191"/>
     <use style="fill:#2e4f4f;stroke:#d65f5f;" x="229.986203" xlink:href="#m8587f965f6" y="238.138832"/>
     <use style="fill:#2e4f4f;stroke:#d65f5f;" x="255.320963" xlink:href="#m8587f965f6" y="223.902091"/>
     <use style="fill:#2e4f4f;stroke:#d65f5f;" x="274.221497" xlink:href="#m8587f965f6" y="221.72535"/>
     <use style="fill:#2e4f4f;stroke:#d65f5f;" x="294.227914" xlink:href="#m8587f965f6" y="189.703919"/>
     <use style="fill:#2e4f4f;stroke:#d65f5f;" x="320.366952" xlink:href="#m8587f965f6" y="214.889574"/>
     <use style="fill:#2e4f4f;stroke:#d65f5f;" x="341.579786" xlink:href="#m8587f965f6" y="212.539664"/>
     <use style="fill:#2e4f4f;stroke:#d65f5f;" x="368.020428" xlink:href="#m8587f965f6" y="198.543061"/>
     <use style="fill:#2e4f4f;stroke:#d65f5f;" x="388.630053" xlink:href="#m8587f965f6" y="157.19956"/>
     <use style="fill:#2e4f4f;stroke:#d65f5f;" x="409.541283" xlink:href="#m8587f965f6" y="137.747463"/>
     <use style="fill:#2e4f4f;stroke:#d65f5f;" x="430.150909" xlink:href="#m8587f965f6" y="83.942692"/>
    </g>
   </g>
   <g id="PathCollection_12">
    <g clip-path="url(#p0d6ce9202c)">
     <use style="fill:#2e4f4f;stroke:#d65f5f;" x="76.369091" xlink:href="#m8587f965f6" y="235.352498"/>
     <use style="fill:#2e4f4f;stroke:#d65f5f;" x="121.107059" xlink:href="#m8587f965f6" y="241.966538"/>
     <use style="fill:#2e4f4f;stroke:#d65f5f;" x="145.83861" xlink:href="#m8587f965f6" y="240.280255"/>
     <use style="fill:#2e4f4f;stroke:#d65f5f;" x="166.046096" xlink:href="#m8587f965f6" y="237.157947"/>
     <use style="fill:#2e4f4f;stroke:#d65f5f;" x="185.34877" xlink:href="#m8587f965f6" y="230.686132"/>
     <use style="fill:#2e4f4f;stroke:#d65f5f;" x="210.48246" xlink:href="#m8587f965f6" y="234.117123"/>
     <use style="fill:#2e4f4f;stroke:#d65f5f;" x="229.986203" xlink:href="#m8587f965f6" y="238.138832"/>
     <use style="fill:#2e4f4f;stroke:#d65f5f;" x="255.320963" xlink:href="#m8587f965f6" y="229.455786"/>
     <use style="fill:#2e4f4f;stroke:#d65f5f;" x="274.221497" xlink:href="#m8587f965f6" y="229.991587"/>
     <use style="fill:#2e4f4f;stroke:#d65f5f;" x="294.227914" xlink:href="#m8587f965f6" y="181.504522"/>
     <use style="fill:#2e4f4f;stroke:#d65f5f;" x="320.366952" xlink:href="#m8587f965f6" y="228.412023"/>
     <use style="fill:#2e4f4f;stroke:#d65f5f;" x="341.579786" xlink:href="#m8587f965f6" y="212.539664"/>
     <use style="fill:#2e4f4f;stroke:#d65f5f;" x="368.020428" xlink:href="#m8587f965f6" y="185.273786"/>
     <use style="fill:#2e4f4f;stroke:#d65f5f;" x="388.630053" xlink:href="#m8587f965f6" y="172.994683"/>
     <use style="fill:#2e4f4f;stroke:#d65f5f;" x="409.541283" xlink:href="#m8587f965f6" y="140.358743"/>
     <use style="fill:#2e4f4f;stroke:#d65f5f;" x="430.150909" xlink:href="#m8587f965f6" y="76.17099"/>
    </g>
   </g>
   <g id="PathCollection_13">
    <g clip-path="url(#p0d6ce9202c)">
     <use style="fill:#2e4f4f;stroke:#d65f5f;" x="76.369091" xlink:href="#m8587f965f6" y="270.010478"/>
     <use style="fill:#2e4f4f;stroke:#d65f5f;" x="101.402246" xlink:href="#m8587f965f6" y="285.957273"/>
     <use style="fill:#2e4f4f;stroke:#d65f5f;" x="121.107059" xlink:href="#m8587f965f6" y="283.972798"/>
     <use style="fill:#2e4f4f;stroke:#d65f5f;" x="165.945561" xlink:href="#m8587f965f6" y="265.125374"/>
     <use style="fill:#2e4f4f;stroke:#d65f5f;" x="185.54984" xlink:href="#m8587f965f6" y="281.936042"/>
     <use style="fill:#2e4f4f;stroke:#d65f5f;" x="210.582995" xlink:href="#m8587f965f6" y="275.416873"/>
     <use style="fill:#2e4f4f;stroke:#d65f5f;" x="230.086738" xlink:href="#m8587f965f6" y="270.613667"/>
     <use style="fill:#2e4f4f;stroke:#d65f5f;" x="255.522032" xlink:href="#m8587f965f6" y="267.098543"/>
     <use style="fill:#2e4f4f;stroke:#d65f5f;" x="274.322032" xlink:href="#m8587f965f6" y="259.852482"/>
     <use style="fill:#2e4f4f;stroke:#d65f5f;" x="294.328449" xlink:href="#m8587f965f6" y="254.811615"/>
    </g>
   </g>
   <g id="PathCollection_14">
    <g clip-path="url(#p0d6ce9202c)">
     <use style="fill:#2e4f4f;stroke:#d65f5f;" x="76.369091" xlink:href="#m8587f965f6" y="240.036012"/>
     <use style="fill:#2e4f4f;stroke:#d65f5f;" x="101.402246" xlink:href="#m8587f965f6" y="253.155598"/>
     <use style="fill:#2e4f4f;stroke:#d65f5f;" x="121.107059" xlink:href="#m8587f965f6" y="269.123396"/>
     <use style="fill:#2e4f4f;stroke:#d65f5f;" x="165.945561" xlink:href="#m8587f965f6" y="259.239818"/>
     <use style="fill:#2e4f4f;stroke:#d65f5f;" x="185.54984" xlink:href="#m8587f965f6" y="249.694124"/>
     <use style="fill:#2e4f4f;stroke:#d65f5f;" x="210.582995" xlink:href="#m8587f965f6" y="263.751779"/>
     <use style="fill:#2e4f4f;stroke:#d65f5f;" x="230.086738" xlink:href="#m8587f965f6" y="244.470035"/>
     <use style="fill:#2e4f4f;stroke:#d65f5f;" x="255.522032" xlink:href="#m8587f965f6" y="238.197864"/>
     <use style="fill:#2e4f4f;stroke:#d65f5f;" x="274.322032" xlink:href="#m8587f965f6" y="236.818423"/>
     <use style="fill:#2e4f4f;stroke:#d65f5f;" x="294.328449" xlink:href="#m8587f965f6" y="249.075987"/>
    </g>
   </g>
   <g id="PathCollection_15">
    <g clip-path="url(#p0d6ce9202c)">
     <use style="fill:#2e4f4f;stroke:#d65f5f;" x="76.369091" xlink:href="#m8587f965f6" y="249.028407"/>
     <use style="fill:#2e4f4f;stroke:#d65f5f;" x="101.402246" xlink:href="#m8587f965f6" y="253.155598"/>
     <use style="fill:#2e4f4f;stroke:#d65f5f;" x="121.107059" xlink:href="#m8587f965f6" y="242.394317"/>
     <use style="fill:#2e4f4f;stroke:#d65f5f;" x="146.039679" xlink:href="#m8587f965f6" y="260.552748"/>
     <use style="fill:#2e4f4f;stroke:#d65f5f;" x="165.945561" xlink:href="#m8587f965f6" y="256.297095"/>
     <use style="fill:#2e4f4f;stroke:#d65f5f;" x="185.54984" xlink:href="#m8587f965f6" y="261.418438"/>
     <use style="fill:#2e4f4f;stroke:#d65f5f;" x="230.086738" xlink:href="#m8587f965f6" y="250.279719"/>
     <use style="fill:#2e4f4f;stroke:#d65f5f;" x="255.522032" xlink:href="#m8587f965f6" y="246.868122"/>
     <use style="fill:#2e4f4f;stroke:#d65f5f;" x="274.322032" xlink:href="#m8587f965f6" y="248.335399"/>
     <use style="fill:#2e4f4f;stroke:#d65f5f;" x="294.328449" xlink:href="#m8587f965f6" y="251.943748"/>
    </g>
   </g>
   <g id="PathCollection_16">
    <g clip-path="url(#p0d6ce9202c)">
     <use style="fill:#2e4f4f;stroke:#d65f5f;" x="76.369091" xlink:href="#m8587f965f6" y="249.028407"/>
     <use style="fill:#2e4f4f;stroke:#d65f5f;" x="101.402246" xlink:href="#m8587f965f6" y="244.209757"/>
     <use style="fill:#2e4f4f;stroke:#d65f5f;" x="121.107059" xlink:href="#m8587f965f6" y="248.3341"/>
     <use style="fill:#2e4f4f;stroke:#d65f5f;" x="146.039679" xlink:href="#m8587f965f6" y="257.59794"/>
     <use style="fill:#2e4f4f;stroke:#d65f5f;" x="165.945561" xlink:href="#m8587f965f6" y="262.182651"/>
     <use style="fill:#2e4f4f;stroke:#d65f5f;" x="185.54984" xlink:href="#m8587f965f6" y="223.314364"/>
     <use style="fill:#2e4f4f;stroke:#d65f5f;" x="210.582995" xlink:href="#m8587f965f6" y="246.254138"/>
     <use style="fill:#2e4f4f;stroke:#d65f5f;" x="230.086738" xlink:href="#m8587f965f6" y="258.994299"/>
     <use style="fill:#2e4f4f;stroke:#d65f5f;" x="255.522032" xlink:href="#m8587f965f6" y="249.758136"/>
     <use style="fill:#2e4f4f;stroke:#d65f5f;" x="274.322032" xlink:href="#m8587f965f6" y="254.093994"/>
     <use style="fill:#2e4f4f;stroke:#d65f5f;" x="294.328449" xlink:href="#m8587f965f6" y="251.943748"/>
    </g>
   </g>
   <g id="PathCollection_17">
    <g clip-path="url(#p0d6ce9202c)">
     <use style="fill:#2e4f4f;stroke:#d65f5f;" x="76.369091" xlink:href="#m8587f965f6" y="261.018194"/>
     <use style="fill:#2e4f4f;stroke:#d65f5f;" x="101.402246" xlink:href="#m8587f965f6" y="265.08357"/>
     <use style="fill:#2e4f4f;stroke:#d65f5f;" x="121.107059" xlink:href="#m8587f965f6" y="281.002961"/>
     <use style="fill:#2e4f4f;stroke:#d65f5f;" x="146.039679" xlink:href="#m8587f965f6" y="272.371763"/>
     <use style="fill:#2e4f4f;stroke:#d65f5f;" x="165.945561" xlink:href="#m8587f965f6" y="265.125374"/>
     <use style="fill:#2e4f4f;stroke:#d65f5f;" x="185.54984" xlink:href="#m8587f965f6" y="273.142752"/>
     <use style="fill:#2e4f4f;stroke:#d65f5f;" x="210.582995" xlink:href="#m8587f965f6" y="272.500654"/>
     <use style="fill:#2e4f4f;stroke:#d65f5f;" x="230.086738" xlink:href="#m8587f965f6" y="270.613667"/>
     <use style="fill:#2e4f4f;stroke:#d65f5f;" x="255.522032" xlink:href="#m8587f965f6" y="261.318407"/>
     <use style="fill:#2e4f4f;stroke:#d65f5f;" x="274.322032" xlink:href="#m8587f965f6" y="251.214697"/>
     <use style="fill:#2e4f4f;stroke:#d65f5f;" x="294.328449" xlink:href="#m8587f965f6" y="251.943748"/>
    </g>
   </g>
   <g id="PathCollection_18">
    <g clip-path="url(#p0d6ce9202c)">
     <use style="fill:#2e4f4f;stroke:#d65f5f;" x="76.369091" xlink:href="#m8587f965f6" y="252.025798"/>
     <use style="fill:#2e4f4f;stroke:#d65f5f;" x="101.402246" xlink:href="#m8587f965f6" y="253.155598"/>
     <use style="fill:#2e4f4f;stroke:#d65f5f;" x="121.107059" xlink:href="#m8587f965f6" y="248.3341"/>
     <use style="fill:#2e4f4f;stroke:#d65f5f;" x="146.039679" xlink:href="#m8587f965f6" y="251.688433"/>
     <use style="fill:#2e4f4f;stroke:#d65f5f;" x="165.945561" xlink:href="#m8587f965f6" y="256.297095"/>
     <use style="fill:#2e4f4f;stroke:#d65f5f;" x="185.54984" xlink:href="#m8587f965f6" y="246.762991"/>
     <use style="fill:#2e4f4f;stroke:#d65f5f;" x="230.086738" xlink:href="#m8587f965f6" y="241.565139"/>
     <use style="fill:#2e4f4f;stroke:#d65f5f;" x="255.522032" xlink:href="#m8587f965f6" y="258.428393"/>
     <use style="fill:#2e4f4f;stroke:#d65f5f;" x="274.322032" xlink:href="#m8587f965f6" y="242.576911"/>
    </g>
   </g>
   <g id="PathCollection_19">
    <g clip-path="url(#p0d6ce9202c)">
     <use style="fill:#2e4f4f;stroke:#d65f5f;" x="76.369091" xlink:href="#m8587f965f6" y="240.036012"/>
     <use style="fill:#2e4f4f;stroke:#d65f5f;" x="101.402246" xlink:href="#m8587f965f6" y="262.101549"/>
     <use style="fill:#2e4f4f;stroke:#d65f5f;" x="121.107059" xlink:href="#m8587f965f6" y="251.303936"/>
     <use style="fill:#2e4f4f;stroke:#d65f5f;" x="146.039679" xlink:href="#m8587f965f6" y="263.507557"/>
     <use style="fill:#2e4f4f;stroke:#d65f5f;" x="165.945561" xlink:href="#m8587f965f6" y="235.697594"/>
     <use style="fill:#2e4f4f;stroke:#d65f5f;" x="185.54984" xlink:href="#m8587f965f6" y="264.349462"/>
     <use style="fill:#2e4f4f;stroke:#d65f5f;" x="210.582995" xlink:href="#m8587f965f6" y="252.086685"/>
     <use style="fill:#2e4f4f;stroke:#d65f5f;" x="230.086738" xlink:href="#m8587f965f6" y="264.803983"/>
     <use style="fill:#2e4f4f;stroke:#d65f5f;" x="255.522032" xlink:href="#m8587f965f6" y="249.758136"/>
     <use style="fill:#2e4f4f;stroke:#d65f5f;" x="274.322032" xlink:href="#m8587f965f6" y="256.973185"/>
     <use style="fill:#2e4f4f;stroke:#d65f5f;" x="294.328449" xlink:href="#m8587f965f6" y="257.679483"/>
    </g>
   </g>
   <g id="PathCollection_20">
    <g clip-path="url(#p0d6ce9202c)">
     <use style="fill:#2e4f4f;stroke:#d65f5f;" x="76.369091" xlink:href="#m8587f965f6" y="258.020691"/>
     <use style="fill:#2e4f4f;stroke:#d65f5f;" x="101.402246" xlink:href="#m8587f965f6" y="259.119528"/>
     <use style="fill:#2e4f4f;stroke:#d65f5f;" x="121.107059" xlink:href="#m8587f965f6" y="263.183613"/>
     <use style="fill:#2e4f4f;stroke:#d65f5f;" x="146.039679" xlink:href="#m8587f965f6" y="266.462255"/>
     <use style="fill:#2e4f4f;stroke:#d65f5f;" x="165.945561" xlink:href="#m8587f965f6" y="244.525873"/>
     <use style="fill:#2e4f4f;stroke:#d65f5f;" x="185.54984" xlink:href="#m8587f965f6" y="243.831858"/>
     <use style="fill:#2e4f4f;stroke:#d65f5f;" x="210.582995" xlink:href="#m8587f965f6" y="269.584326"/>
     <use style="fill:#2e4f4f;stroke:#d65f5f;" x="230.086738" xlink:href="#m8587f965f6" y="247.374823"/>
     <use style="fill:#2e4f4f;stroke:#d65f5f;" x="255.522032" xlink:href="#m8587f965f6" y="255.538271"/>
     <use style="fill:#2e4f4f;stroke:#d65f5f;" x="274.322032" xlink:href="#m8587f965f6" y="256.973185"/>
    </g>
   </g>
   <g id="PathCollection_21">
    <g clip-path="url(#p0d6ce9202c)">
     <use style="fill:#2e4f4f;stroke:#d65f5f;" x="76.369091" xlink:href="#m8587f965f6" y="243.033402"/>
     <use style="fill:#2e4f4f;stroke:#d65f5f;" x="101.402246" xlink:href="#m8587f965f6" y="268.06548"/>
     <use style="fill:#2e4f4f;stroke:#d65f5f;" x="121.107059" xlink:href="#m8587f965f6" y="260.213666"/>
     <use style="fill:#2e4f4f;stroke:#d65f5f;" x="165.945561" xlink:href="#m8587f965f6" y="241.58315"/>
     <use style="fill:#2e4f4f;stroke:#d65f5f;" x="185.54984" xlink:href="#m8587f965f6" y="261.418438"/>
     <use style="fill:#2e4f4f;stroke:#d65f5f;" x="210.582995" xlink:href="#m8587f965f6" y="266.668107"/>
     <use style="fill:#2e4f4f;stroke:#d65f5f;" x="230.086738" xlink:href="#m8587f965f6" y="250.279719"/>
     <use style="fill:#2e4f4f;stroke:#d65f5f;" x="255.522032" xlink:href="#m8587f965f6" y="255.538271"/>
     <use style="fill:#2e4f4f;stroke:#d65f5f;" x="274.322032" xlink:href="#m8587f965f6" y="248.335399"/>
     <use style="fill:#2e4f4f;stroke:#d65f5f;" x="294.328449" xlink:href="#m8587f965f6" y="234.736861"/>
    </g>
   </g>
   <g id="PathCollection_22">
    <g clip-path="url(#p0d6ce9202c)">
     <use style="fill:#2e4f4f;stroke:#d65f5f;" x="76.369091" xlink:href="#m8587f965f6" y="240.036012"/>
     <use style="fill:#2e4f4f;stroke:#d65f5f;" x="101.402246" xlink:href="#m8587f965f6" y="241.227736"/>
     <use style="fill:#2e4f4f;stroke:#d65f5f;" x="121.107059" xlink:href="#m8587f965f6" y="245.364154"/>
     <use style="fill:#2e4f4f;stroke:#d65f5f;" x="146.039679" xlink:href="#m8587f965f6" y="254.643241"/>
     <use style="fill:#2e4f4f;stroke:#d65f5f;" x="165.945561" xlink:href="#m8587f965f6" y="256.297095"/>
     <use style="fill:#2e4f4f;stroke:#d65f5f;" x="185.54984" xlink:href="#m8587f965f6" y="240.900835"/>
     <use style="fill:#2e4f4f;stroke:#d65f5f;" x="210.582995" xlink:href="#m8587f965f6" y="255.002904"/>
     <use style="fill:#2e4f4f;stroke:#d65f5f;" x="230.086738" xlink:href="#m8587f965f6" y="229.945771"/>
     <use style="fill:#2e4f4f;stroke:#d65f5f;" x="255.522032" xlink:href="#m8587f965f6" y="246.868122"/>
     <use style="fill:#2e4f4f;stroke:#d65f5f;" x="274.322032" xlink:href="#m8587f965f6" y="239.69772"/>
    </g>
   </g>
   <g id="PathCollection_23">
    <g clip-path="url(#p0d6ce9202c)">
     <use style="fill:#2e4f4f;stroke:#d65f5f;" x="76.369091" xlink:href="#m8587f965f6" y="237.038509"/>
     <use style="fill:#2e4f4f;stroke:#d65f5f;" x="101.402246" xlink:href="#m8587f965f6" y="232.281895"/>
     <use style="fill:#2e4f4f;stroke:#d65f5f;" x="121.107059" xlink:href="#m8587f965f6" y="245.364154"/>
     <use style="fill:#2e4f4f;stroke:#d65f5f;" x="146.039679" xlink:href="#m8587f965f6" y="266.462255"/>
     <use style="fill:#2e4f4f;stroke:#d65f5f;" x="165.945561" xlink:href="#m8587f965f6" y="238.640317"/>
     <use style="fill:#2e4f4f;stroke:#d65f5f;" x="185.54984" xlink:href="#m8587f965f6" y="220.383231"/>
     <use style="fill:#2e4f4f;stroke:#d65f5f;" x="210.582995" xlink:href="#m8587f965f6" y="249.170357"/>
     <use style="fill:#2e4f4f;stroke:#d65f5f;" x="230.086738" xlink:href="#m8587f965f6" y="224.136087"/>
     <use style="fill:#2e4f4f;stroke:#d65f5f;" x="255.522032" xlink:href="#m8587f965f6" y="243.978"/>
     <use style="fill:#2e4f4f;stroke:#d65f5f;" x="274.322032" xlink:href="#m8587f965f6" y="248.335399"/>
    </g>
   </g>
   <g id="PathCollection_24">
    <g clip-path="url(#p0d6ce9202c)">
     <use style="fill:#2e4f4f;stroke:#d65f5f;" x="101.402246" xlink:href="#m8587f965f6" y="244.209757"/>
     <use style="fill:#2e4f4f;stroke:#d65f5f;" x="121.107059" xlink:href="#m8587f965f6" y="251.303936"/>
     <use style="fill:#2e4f4f;stroke:#d65f5f;" x="146.039679" xlink:href="#m8587f965f6" y="269.417064"/>
     <use style="fill:#2e4f4f;stroke:#d65f5f;" x="165.945561" xlink:href="#m8587f965f6" y="229.812037"/>
     <use style="fill:#2e4f4f;stroke:#d65f5f;" x="185.54984" xlink:href="#m8587f965f6" y="235.038678"/>
     <use style="fill:#2e4f4f;stroke:#d65f5f;" x="210.582995" xlink:href="#m8587f965f6" y="240.421591"/>
     <use style="fill:#2e4f4f;stroke:#d65f5f;" x="230.086738" xlink:href="#m8587f965f6" y="247.374823"/>
     <use style="fill:#2e4f4f;stroke:#d65f5f;" x="255.522032" xlink:href="#m8587f965f6" y="249.758136"/>
     <use style="fill:#2e4f4f;stroke:#d65f5f;" x="274.322032" xlink:href="#m8587f965f6" y="248.335399"/>
    </g>
   </g>
   <g id="line2d_1">
    <path clip-path="url(#p0d6ce9202c)" d="M 101.301711 219.254139 
L 121.107059 283.113587 
L 145.83861 263.54243 
L 166.046096 271.750176 
L 185.34877 270.713865 
L 210.48246 285.039504 
L 229.986203 257.781476 
L 255.320963 240.563176 
L 274.221497 254.790504 
L 294.227914 217.035174 
L 320.366952 236.525574 
L 341.579786 247.402 
L 368.020428 248.966169 
L 388.630053 207.217499 
L 409.541283 187.361003 
L 430.150909 159.069754 
" style="fill:none;stroke:#d65f5f;stroke-linecap:round;stroke-opacity:0.1;stroke-width:1.5;"/>
   </g>
   <g id="line2d_2">
    <path clip-path="url(#p0d6ce9202c)" d="M 76.369091 259.332071 
L 101.301711 257.794423 
L 121.107059 239.027408 
L 145.83861 246.095799 
L 166.046096 254.454061 
L 185.34877 247.840875 
L 210.48246 265.236344 
L 229.986203 232.526663 
L 255.320963 226.678887 
L 274.221497 229.991587 
L 294.227914 178.771458 
L 320.366952 223.003023 
L 341.579786 228.62995 
L 368.020428 209.158442 
L 388.630053 172.994683 
L 409.541283 148.192485 
L 430.150909 102.076824 
" style="fill:none;stroke:#d65f5f;stroke-linecap:round;stroke-opacity:0.1;stroke-width:1.5;"/>
   </g>
   <g id="line2d_3">
    <path clip-path="url(#p0d6ce9202c)" d="M 76.369091 259.332071 
L 101.301711 260.759001 
L 121.107059 241.966538 
L 145.83861 243.187972 
L 166.046096 257.336693 
L 185.34877 242.122627 
L 210.48246 256.749246 
L 229.986203 224.108461 
L 255.320963 221.125192 
L 274.221497 227.236209 
L 294.227914 186.970855 
L 320.366952 220.298574 
L 341.579786 223.266521 
L 368.020428 195.889166 
L 388.630053 167.729642 
L 409.541283 129.913818 
L 430.150909 68.399192 
" style="fill:none;stroke:#d65f5f;stroke-linecap:round;stroke-opacity:0.1;stroke-width:1.5;"/>
   </g>
   <g id="line2d_4">
    <path clip-path="url(#p0d6ce9202c)" d="M 76.369091 238.349889 
L 121.107059 239.027408 
L 145.83861 243.187972 
L 166.046096 240.040579 
L 185.34877 102.025296 
L 210.48246 251.091215 
L 229.986203 221.302324 
L 255.320963 218.348396 
L 274.221497 229.991587 
L 294.227914 195.17015 
L 320.366952 217.594023 
L 341.579786 199.131042 
L 368.020428 182.61999 
L 388.630053 159.832031 
L 409.541283 103.801408 
L 430.150909 39.902727 
" style="fill:none;stroke:#d65f5f;stroke-linecap:round;stroke-opacity:0.1;stroke-width:1.5;"/>
   </g>
   <g id="line2d_5">
    <path clip-path="url(#p0d6ce9202c)" d="M 76.369091 265.326964 
L 101.301711 269.652955 
L 121.107059 259.600987 
L 145.83861 260.634604 
L 166.046096 263.102172 
L 185.34877 267.854795 
L 210.48246 262.407276 
L 229.986203 240.944969 
L 255.320963 223.902091 
L 274.221497 243.768786 
L 294.227914 222.501405 
L 320.366952 252.752574 
L 341.579786 244.720236 
L 368.020428 227.735407 
L 388.630053 204.585028 
L 409.541283 174.304798 
L 430.150909 153.888587 
" style="fill:none;stroke:#d65f5f;stroke-linecap:round;stroke-opacity:0.1;stroke-width:1.5;"/>
   </g>
   <g id="line2d_6">
    <path clip-path="url(#p0d6ce9202c)" d="M 76.369091 226.360102 
L 101.301711 242.971203 
L 121.107059 247.844688 
L 145.83861 237.372429 
L 166.046096 254.454061 
L 185.34877 253.559122 
L 210.48246 239.775154 
L 229.986203 207.271849 
L 255.320963 210.017802 
L 274.221497 213.45901 
L 294.227914 192.437085 
L 320.366952 228.412023 
L 341.579786 220.584757 
L 368.020428 203.850751 
L 388.630053 165.097073 
L 409.541283 156.026131 
L 430.150909 89.123859 
" style="fill:none;stroke:#d65f5f;stroke-linecap:round;stroke-opacity:0.1;stroke-width:1.5;"/>
   </g>
   <g id="line2d_7">
    <path clip-path="url(#p0d6ce9202c)" d="M 76.369091 235.352498 
L 101.301711 251.865157 
L 121.107059 239.027408 
L 145.83861 251.911342 
L 166.046096 237.157947 
L 185.34877 216.39046 
L 210.48246 239.775154 
L 229.986203 215.690155 
L 255.320963 204.464107 
L 274.221497 210.703529 
L 294.227914 173.305227 
L 320.366952 204.071574 
L 341.579786 201.812706 
L 368.020428 179.966095 
L 388.630053 133.506826 
L 409.541283 145.581205 
L 430.150909 81.352157 
" style="fill:none;stroke:#d65f5f;stroke-linecap:round;stroke-opacity:0.1;stroke-width:1.5;"/>
   </g>
   <g id="line2d_8">
    <path clip-path="url(#p0d6ce9202c)" d="M 76.369091 232.354995 
L 121.107059 250.783708 
L 145.83861 243.187972 
L 166.046096 240.040579 
L 185.34877 187.799116 
L 210.48246 242.604222 
L 229.986203 224.108461 
L 255.320963 218.348396 
L 274.221497 227.236209 
L 294.227914 189.703919 
L 320.366952 225.707574 
L 341.579786 193.767613 
L 368.020428 203.850751 
L 388.630053 165.097073 
L 409.541283 135.13628 
L 430.150909 70.989824 
" style="fill:none;stroke:#d65f5f;stroke-linecap:round;stroke-opacity:0.1;stroke-width:1.5;"/>
   </g>
   <g id="line2d_9">
    <path clip-path="url(#p0d6ce9202c)" d="M 76.369091 241.347391 
L 101.301711 260.759001 
L 121.107059 247.844688 
L 145.83861 254.81906 
L 166.046096 254.454061 
L 185.34877 264.995618 
L 210.48246 253.920283 
L 229.986203 240.944969 
L 255.320963 193.356716 
L 274.221497 232.747068 
L 294.227914 195.17015 
L 320.366952 241.934574 
L 341.579786 239.356807 
L 368.020428 227.735407 
L 388.630053 199.319889 
L 409.541283 169.082336 
L 430.150909 112.439157 
" style="fill:none;stroke:#d65f5f;stroke-linecap:round;stroke-opacity:0.1;stroke-width:1.5;"/>
   </g>
   <g id="line2d_10">
    <path clip-path="url(#p0d6ce9202c)" d="M 76.369091 253.337178 
L 101.301711 248.900469 
L 121.107059 247.844688 
L 145.83861 237.372429 
L 166.046096 257.336693 
L 185.34877 222.108708 
L 210.48246 262.407276 
L 229.986203 218.496292 
L 255.320963 221.125192 
L 274.221497 213.45901 
L 294.227914 189.703919 
L 320.366952 209.480574 
L 341.579786 201.812706 
L 368.020428 187.92768 
L 388.630053 162.464601 
L 409.541283 114.246333 
L 430.150909 58.036859 
" style="fill:none;stroke:#d65f5f;stroke-linecap:round;stroke-opacity:0.1;stroke-width:1.5;"/>
   </g>
   <g id="line2d_11">
    <path clip-path="url(#p0d6ce9202c)" d="M 76.369091 226.360102 
L 121.107059 230.210129 
L 145.83861 234.464603 
L 166.046096 234.275207 
L 185.34877 242.122627 
L 210.48246 236.946191 
L 229.986203 238.138832 
L 255.320963 223.902091 
L 274.221497 221.72535 
L 294.227914 189.703919 
L 320.366952 214.889574 
L 341.579786 212.539664 
L 368.020428 198.543061 
L 388.630053 157.19956 
L 409.541283 137.747463 
L 430.150909 83.942692 
" style="fill:none;stroke:#d65f5f;stroke-linecap:round;stroke-opacity:0.1;stroke-width:1.5;"/>
   </g>
   <g id="line2d_12">
    <path clip-path="url(#p0d6ce9202c)" d="M 76.369091 235.352498 
L 121.107059 241.966538 
L 145.83861 240.280255 
L 166.046096 237.157947 
L 185.34877 230.686132 
L 210.48246 234.117123 
L 229.986203 238.138832 
L 255.320963 229.455786 
L 274.221497 229.991587 
L 294.227914 181.504522 
L 320.366952 228.412023 
L 341.579786 212.539664 
L 368.020428 185.273786 
L 388.630053 172.994683 
L 409.541283 140.358743 
L 430.150909 76.17099 
" style="fill:none;stroke:#d65f5f;stroke-linecap:round;stroke-opacity:0.1;stroke-width:1.5;"/>
   </g>
   <g id="line2d_13">
    <path clip-path="url(#p0d6ce9202c)" d="M 76.369091 270.010478 
L 101.402246 285.957273 
L 121.107059 283.972798 
L 165.945561 265.125374 
L 185.54984 281.936042 
L 210.582995 275.416873 
L 230.086738 270.613667 
L 255.522032 267.098543 
L 274.322032 259.852482 
L 294.328449 254.811615 
" style="fill:none;stroke:#d65f5f;stroke-linecap:round;stroke-opacity:0.1;stroke-width:1.5;"/>
   </g>
   <g id="line2d_14">
    <path clip-path="url(#p0d6ce9202c)" d="M 76.369091 240.036012 
L 101.402246 253.155598 
L 121.107059 269.123396 
L 165.945561 259.239818 
L 185.54984 249.694124 
L 210.582995 263.751779 
L 230.086738 244.470035 
L 255.522032 238.197864 
L 274.322032 236.818423 
L 294.328449 249.075987 
" style="fill:none;stroke:#d65f5f;stroke-linecap:round;stroke-opacity:0.1;stroke-width:1.5;"/>
   </g>
   <g id="line2d_15">
    <path clip-path="url(#p0d6ce9202c)" d="M 76.369091 249.028407 
L 101.402246 253.155598 
L 121.107059 242.394317 
L 146.039679 260.552748 
L 165.945561 256.297095 
L 185.54984 261.418438 
L 230.086738 250.279719 
L 255.522032 246.868122 
L 274.322032 248.335399 
L 294.328449 251.943748 
" style="fill:none;stroke:#d65f5f;stroke-linecap:round;stroke-opacity:0.1;stroke-width:1.5;"/>
   </g>
   <g id="line2d_16">
    <path clip-path="url(#p0d6ce9202c)" d="M 76.369091 249.028407 
L 101.402246 244.209757 
L 121.107059 248.3341 
L 146.039679 257.59794 
L 165.945561 262.182651 
L 185.54984 223.314364 
L 210.582995 246.254138 
L 230.086738 258.994299 
L 255.522032 249.758136 
L 274.322032 254.093994 
L 294.328449 251.943748 
" style="fill:none;stroke:#d65f5f;stroke-linecap:round;stroke-opacity:0.1;stroke-width:1.5;"/>
   </g>
   <g id="line2d_17">
    <path clip-path="url(#p0d6ce9202c)" d="M 76.369091 261.018194 
L 101.402246 265.08357 
L 121.107059 281.002961 
L 146.039679 272.371763 
L 165.945561 265.125374 
L 185.54984 273.142752 
L 210.582995 272.500654 
L 230.086738 270.613667 
L 255.522032 261.318407 
L 274.322032 251.214697 
L 294.328449 251.943748 
" style="fill:none;stroke:#d65f5f;stroke-linecap:round;stroke-opacity:0.1;stroke-width:1.5;"/>
   </g>
   <g id="line2d_18">
    <path clip-path="url(#p0d6ce9202c)" d="M 76.369091 252.025798 
L 101.402246 253.155598 
L 121.107059 248.3341 
L 146.039679 251.688433 
L 165.945561 256.297095 
L 185.54984 246.762991 
L 230.086738 241.565139 
L 255.522032 258.428393 
L 274.322032 242.576911 
" style="fill:none;stroke:#d65f5f;stroke-linecap:round;stroke-opacity:0.1;stroke-width:1.5;"/>
   </g>
   <g id="line2d_19">
    <path clip-path="url(#p0d6ce9202c)" d="M 76.369091 240.036012 
L 101.402246 262.101549 
L 121.107059 251.303936 
L 146.039679 263.507557 
L 165.945561 235.697594 
L 185.54984 264.349462 
L 210.582995 252.086685 
L 230.086738 264.803983 
L 255.522032 249.758136 
L 274.322032 256.973185 
L 294.328449 257.679483 
" style="fill:none;stroke:#d65f5f;stroke-linecap:round;stroke-opacity:0.1;stroke-width:1.5;"/>
   </g>
   <g id="line2d_20">
    <path clip-path="url(#p0d6ce9202c)" d="M 76.369091 258.020691 
L 101.402246 259.119528 
L 121.107059 263.183613 
L 146.039679 266.462255 
L 165.945561 244.525873 
L 185.54984 243.831858 
L 210.582995 269.584326 
L 230.086738 247.374823 
L 255.522032 255.538271 
L 274.322032 256.973185 
" style="fill:none;stroke:#d65f5f;stroke-linecap:round;stroke-opacity:0.1;stroke-width:1.5;"/>
   </g>
   <g id="line2d_21">
    <path clip-path="url(#p0d6ce9202c)" d="M 76.369091 243.033402 
L 101.402246 268.06548 
L 121.107059 260.213666 
L 165.945561 241.58315 
L 185.54984 261.418438 
L 210.582995 266.668107 
L 230.086738 250.279719 
L 255.522032 255.538271 
L 274.322032 248.335399 
L 294.328449 234.736861 
" style="fill:none;stroke:#d65f5f;stroke-linecap:round;stroke-opacity:0.1;stroke-width:1.5;"/>
   </g>
   <g id="line2d_22">
    <path clip-path="url(#p0d6ce9202c)" d="M 76.369091 240.036012 
L 101.402246 241.227736 
L 121.107059 245.364154 
L 146.039679 254.643241 
L 165.945561 256.297095 
L 185.54984 240.900835 
L 210.582995 255.002904 
L 230.086738 229.945771 
L 255.522032 246.868122 
L 274.322032 239.69772 
" style="fill:none;stroke:#d65f5f;stroke-linecap:round;stroke-opacity:0.1;stroke-width:1.5;"/>
   </g>
   <g id="line2d_23">
    <path clip-path="url(#p0d6ce9202c)" d="M 76.369091 237.038509 
L 101.402246 232.281895 
L 121.107059 245.364154 
L 146.039679 266.462255 
L 165.945561 238.640317 
L 185.54984 220.383231 
L 210.582995 249.170357 
L 230.086738 224.136087 
L 255.522032 243.978 
L 274.322032 248.335399 
" style="fill:none;stroke:#d65f5f;stroke-linecap:round;stroke-opacity:0.1;stroke-width:1.5;"/>
   </g>
   <g id="line2d_24">
    <path clip-path="url(#p0d6ce9202c)" d="M 101.402246 244.209757 
L 121.107059 251.303936 
L 146.039679 269.417064 
L 165.945561 229.812037 
L 185.54984 235.038678 
L 210.582995 240.421591 
L 230.086738 247.374823 
L 255.522032 249.758136 
L 274.322032 248.335399 
" style="fill:none;stroke:#d65f5f;stroke-linecap:round;stroke-opacity:0.1;stroke-width:1.5;"/>
   </g>
   <g id="patch_3">
    <path d="M 58.68 298.26 
L 58.68 27.6 
" style="fill:none;stroke:#262626;stroke-linecap:square;stroke-linejoin:miter;stroke-width:1.25;"/>
   </g>
   <g id="patch_4">
    <path d="M 447.84 298.26 
L 447.84 27.6 
" style="fill:none;stroke:#262626;stroke-linecap:square;stroke-linejoin:miter;stroke-width:1.25;"/>
   </g>
   <g id="patch_5">
    <path d="M 58.68 298.26 
L 447.84 298.26 
" style="fill:none;stroke:#262626;stroke-linecap:square;stroke-linejoin:miter;stroke-width:1.25;"/>
   </g>
   <g id="patch_6">
    <path d="M 58.68 27.6 
L 447.84 27.6 
" style="fill:none;stroke:#262626;stroke-linecap:square;stroke-linejoin:miter;stroke-width:1.25;"/>
   </g>
   <g id="text_13">
    <!-- Growth curve of SIJ216 -->
    <defs>
     <path d="M 41.21875 28.078125 
L 41.21875 36.46875 
L 71.53125 36.53125 
L 71.53125 9.96875 
Q 64.546875 4.390625 57.125 1.578125 
Q 49.703125 -1.21875 41.890625 -1.21875 
Q 31.34375 -1.21875 22.71875 3.296875 
Q 14.109375 7.8125 9.71875 16.359375 
Q 5.328125 24.90625 5.328125 35.453125 
Q 5.328125 45.90625 9.6875 54.953125 
Q 14.0625 64.015625 22.265625 68.40625 
Q 30.46875 72.796875 41.15625 72.796875 
Q 48.921875 72.796875 55.1875 70.28125 
Q 61.46875 67.78125 65.03125 63.28125 
Q 68.609375 58.796875 70.453125 51.5625 
L 61.921875 49.21875 
Q 60.296875 54.6875 57.90625 57.8125 
Q 55.515625 60.9375 51.0625 62.8125 
Q 46.625 64.703125 41.21875 64.703125 
Q 34.71875 64.703125 29.984375 62.71875 
Q 25.25 60.75 22.34375 57.515625 
Q 19.4375 54.296875 17.828125 50.4375 
Q 15.09375 43.796875 15.09375 36.03125 
Q 15.09375 26.46875 18.390625 20.015625 
Q 21.6875 13.578125 27.984375 10.453125 
Q 34.28125 7.328125 41.359375 7.328125 
Q 47.515625 7.328125 53.375 9.6875 
Q 59.234375 12.0625 62.25 14.75 
L 62.25 28.078125 
z
" id="ArialMT-71"/>
     <path d="M 16.15625 0 
L 0.296875 51.859375 
L 9.375 51.859375 
L 17.625 21.921875 
L 20.703125 10.796875 
Q 20.90625 11.625 23.390625 21.484375 
L 31.640625 51.859375 
L 40.671875 51.859375 
L 48.4375 21.78125 
L 51.03125 11.859375 
L 54 21.875 
L 62.890625 51.859375 
L 71.4375 51.859375 
L 55.21875 0 
L 46.09375 0 
L 37.84375 31.0625 
L 35.84375 39.890625 
L 25.34375 0 
z
" id="ArialMT-119"/>
     <path d="M 25.78125 7.859375 
L 27.046875 0.09375 
Q 23.34375 -0.6875 20.40625 -0.6875 
Q 15.625 -0.6875 12.984375 0.828125 
Q 10.359375 2.34375 9.28125 4.8125 
Q 8.203125 7.28125 8.203125 15.1875 
L 8.203125 45.015625 
L 1.765625 45.015625 
L 1.765625 51.859375 
L 8.203125 51.859375 
L 8.203125 64.703125 
L 16.9375 69.96875 
L 16.9375 51.859375 
L 25.78125 51.859375 
L 25.78125 45.015625 
L 16.9375 45.015625 
L 16.9375 14.703125 
Q 16.9375 10.9375 17.40625 9.859375 
Q 17.875 8.796875 18.921875 8.15625 
Q 19.96875 7.515625 21.921875 7.515625 
Q 23.390625 7.515625 25.78125 7.859375 
z
" id="ArialMT-116"/>
     <path d="M 40.578125 0 
L 40.578125 7.625 
Q 34.515625 -1.171875 24.125 -1.171875 
Q 19.53125 -1.171875 15.546875 0.578125 
Q 11.578125 2.34375 9.640625 5 
Q 7.71875 7.671875 6.9375 11.53125 
Q 6.390625 14.109375 6.390625 19.734375 
L 6.390625 51.859375 
L 15.1875 51.859375 
L 15.1875 23.09375 
Q 15.1875 16.21875 15.71875 13.8125 
Q 16.546875 10.359375 19.234375 8.375 
Q 21.921875 6.390625 25.875 6.390625 
Q 29.828125 6.390625 33.296875 8.421875 
Q 36.765625 10.453125 38.203125 13.9375 
Q 39.65625 17.4375 39.65625 24.078125 
L 39.65625 51.859375 
L 48.4375 51.859375 
L 48.4375 0 
z
" id="ArialMT-117"/>
     <path d="M 21 0 
L 1.265625 51.859375 
L 10.546875 51.859375 
L 21.6875 20.796875 
Q 23.484375 15.765625 25 10.359375 
Q 26.171875 14.453125 28.265625 20.21875 
L 39.796875 51.859375 
L 48.828125 51.859375 
L 29.203125 0 
z
" id="ArialMT-118"/>
     <path d="M 8.6875 0 
L 8.6875 45.015625 
L 0.921875 45.015625 
L 0.921875 51.859375 
L 8.6875 51.859375 
L 8.6875 57.375 
Q 8.6875 62.59375 9.625 65.140625 
Q 10.890625 68.5625 14.078125 70.671875 
Q 17.28125 72.796875 23.046875 72.796875 
Q 26.765625 72.796875 31.25 71.921875 
L 29.9375 64.265625 
Q 27.203125 64.75 24.75 64.75 
Q 20.75 64.75 19.09375 63.03125 
Q 17.4375 61.328125 17.4375 56.640625 
L 17.4375 51.859375 
L 27.546875 51.859375 
L 27.546875 45.015625 
L 17.4375 45.015625 
L 17.4375 0 
z
" id="ArialMT-102"/>
     <path d="M 4.5 23 
L 13.421875 23.78125 
Q 14.0625 18.40625 16.375 14.96875 
Q 18.703125 11.53125 23.578125 9.40625 
Q 28.46875 7.28125 34.578125 7.28125 
Q 39.984375 7.28125 44.140625 8.890625 
Q 48.296875 10.5 50.3125 13.296875 
Q 52.34375 16.109375 52.34375 19.4375 
Q 52.34375 22.796875 50.390625 25.3125 
Q 48.4375 27.828125 43.953125 29.546875 
Q 41.0625 30.671875 31.203125 33.03125 
Q 21.34375 35.40625 17.390625 37.5 
Q 12.25 40.1875 9.734375 44.15625 
Q 7.234375 48.140625 7.234375 53.078125 
Q 7.234375 58.5 10.296875 63.203125 
Q 13.375 67.921875 19.28125 70.359375 
Q 25.203125 72.796875 32.421875 72.796875 
Q 40.375 72.796875 46.453125 70.234375 
Q 52.546875 67.671875 55.8125 62.6875 
Q 59.078125 57.71875 59.328125 51.421875 
L 50.25 50.734375 
Q 49.515625 57.515625 45.28125 60.984375 
Q 41.0625 64.453125 32.8125 64.453125 
Q 24.21875 64.453125 20.28125 61.296875 
Q 16.359375 58.15625 16.359375 53.71875 
Q 16.359375 49.859375 19.140625 47.359375 
Q 21.875 44.875 33.421875 42.265625 
Q 44.96875 39.65625 49.265625 37.703125 
Q 55.515625 34.8125 58.484375 30.390625 
Q 61.46875 25.984375 61.46875 20.21875 
Q 61.46875 14.5 58.203125 9.4375 
Q 54.9375 4.390625 48.796875 1.578125 
Q 42.671875 -1.21875 35.015625 -1.21875 
Q 25.296875 -1.21875 18.71875 1.609375 
Q 12.15625 4.4375 8.421875 10.125 
Q 4.6875 15.828125 4.5 23 
z
" id="ArialMT-83"/>
     <path d="M 9.328125 0 
L 9.328125 71.578125 
L 18.796875 71.578125 
L 18.796875 0 
z
" id="ArialMT-73"/>
     <path d="M 2.875 20.3125 
L 11.421875 21.484375 
Q 11.765625 13.28125 14.5 10.25 
Q 17.234375 7.234375 22.078125 7.234375 
Q 25.640625 7.234375 28.21875 8.859375 
Q 30.8125 10.5 31.78125 13.296875 
Q 32.765625 16.109375 32.765625 22.265625 
L 32.765625 71.578125 
L 42.234375 71.578125 
L 42.234375 22.796875 
Q 42.234375 13.8125 40.0625 8.875 
Q 37.890625 3.953125 33.171875 1.359375 
Q 28.46875 -1.21875 22.125 -1.21875 
Q 12.703125 -1.21875 7.6875 4.203125 
Q 2.6875 9.625 2.875 20.3125 
z
" id="ArialMT-74"/>
    </defs>
    <g style="fill:#262626;" transform="translate(190.568438 21.6)scale(0.12 -0.12)">
     <use xlink:href="#ArialMT-71"/>
     <use x="77.783203" xlink:href="#ArialMT-114"/>
     <use x="111.083984" xlink:href="#ArialMT-111"/>
     <use x="166.699219" xlink:href="#ArialMT-119"/>
     <use x="238.916016" xlink:href="#ArialMT-116"/>
     <use x="266.699219" xlink:href="#ArialMT-104"/>
     <use x="322.314453" xlink:href="#ArialMT-32"/>
     <use x="350.097656" xlink:href="#ArialMT-99"/>
     <use x="400.097656" xlink:href="#ArialMT-117"/>
     <use x="455.712891" xlink:href="#ArialMT-114"/>
     <use x="489.013672" xlink:href="#ArialMT-118"/>
     <use x="539.013672" xlink:href="#ArialMT-101"/>
     <use x="594.628906" xlink:href="#ArialMT-32"/>
     <use x="622.412109" xlink:href="#ArialMT-111"/>
     <use x="678.027344" xlink:href="#ArialMT-102"/>
     <use x="705.810547" xlink:href="#ArialMT-32"/>
     <use x="733.59375" xlink:href="#ArialMT-83"/>
     <use x="800.292969" xlink:href="#ArialMT-73"/>
     <use x="828.076172" xlink:href="#ArialMT-74"/>
     <use x="878.076172" xlink:href="#ArialMT-50"/>
     <use x="933.691406" xlink:href="#ArialMT-49"/>
     <use x="989.306641" xlink:href="#ArialMT-54"/>
    </g>
   </g>
  </g>
 </g>
 <defs>
  <clipPath id="p0d6ce9202c">
   <rect height="270.66" width="389.16" x="58.68" y="27.6"/>
  </clipPath>
 </defs>
</svg>
